<?xml version="1.0" encoding="UTF-8" standalone="no"?>
<!-- Created with Inkscape (http://www.inkscape.org/) -->

<svg
   xmlns:dc="http://purl.org/dc/elements/1.1/"
   xmlns:cc="http://creativecommons.org/ns#"
   xmlns:rdf="http://www.w3.org/1999/02/22-rdf-syntax-ns#"
   xmlns:svg="http://www.w3.org/2000/svg"
   xmlns="http://www.w3.org/2000/svg"
   xmlns:sodipodi="http://sodipodi.sourceforge.net/DTD/sodipodi-0.dtd"
   xmlns:inkscape="http://www.inkscape.org/namespaces/inkscape"
   width="3in"
   height="4in"
   viewBox="0 0 76.2 101.6"
   version="1.1"
   id="svg8"
   inkscape:version="0.92.1 r15371"
   sodipodi:docname="metronome.svg"
   inkscape:export-filename="C:\Users\johnp\OneDrive\EvolveLAB Transfer\EvolveLAB\Development\EvolveLAB Dynamo Package\beakerForDynamo.png"
   inkscape:export-xdpi="96"
   inkscape:export-ydpi="96">
  <defs
     id="defs2" />
  <sodipodi:namedview
     id="base"
     pagecolor="#ffffff"
     bordercolor="#666666"
     borderopacity="1.0"
     inkscape:pageopacity="0.0"
     inkscape:pageshadow="2"
     inkscape:zoom="0.7"
     inkscape:cx="25.098411"
     inkscape:cy="136.38891"
     inkscape:document-units="mm"
     inkscape:current-layer="g4546"
     showgrid="false"
     inkscape:window-width="1920"
     inkscape:window-height="1027"
     inkscape:window-x="1912"
     inkscape:window-y="104"
     inkscape:window-maximized="1"
     units="in" />
  <metadata
     id="metadata5">
    <rdf:RDF>
      <cc:Work
         rdf:about="">
        <dc:format>image/svg+xml</dc:format>
        <dc:type
           rdf:resource="http://purl.org/dc/dcmitype/StillImage" />
        <dc:title></dc:title>
      </cc:Work>
    </rdf:RDF>
  </metadata>
  <g
     inkscape:label="Layer 1"
     inkscape:groupmode="layer"
     id="layer1"
     transform="translate(0,-195.4)">
    <g
       id="g4546"
       transform="translate(6.4144687,-78.309972)">
      <path
         inkscape:connector-curvature="0"
         id="path4528"
         d="m 61.481317,367.83295 c 0.747549,-0.272 1.73293,-1.41995 1.876697,-2.18629 0.106708,-0.5688 -2.643954,-12.06574 -9.939111,-41.54242 -5.54766,-22.4158 -10.251684,-41.03487 -10.453387,-41.37574 -0.201706,-0.34087 -0.664101,-0.84287 -1.027547,-1.11556 -0.626452,-0.47003 -1.111966,-0.49984 -9.337444,-0.5733 -4.77215,-0.0426 -9.154418,-0.007 -9.738374,0.0784 -0.745091,0.10938 -1.310162,0.40428 -1.894713,0.98884 -0.810123,0.81011 -0.923536,1.20072 -4.133619,14.23628 -1.815355,7.37182 -3.383023,13.32045 -3.483713,13.21916 -0.100691,-0.10128 -0.570832,-1.0357 -1.044768,-2.07648 l -0.8617,-1.89232 0.660015,-0.95858 c 0.914397,-1.32801 0.9423,-3.75013 0.05837,-5.06827 -0.813051,-1.21245 -2.044335,-1.96357 -3.5017347,-2.13618 -0.6721089,-0.0796 -1.2220167,-0.23278 -1.2220167,-0.34038 0,-0.40298 -0.7998351,-0.97481 -1.3634712,-0.97481 -0.9160468,0 -1.4377783,0.68556 -1.2767764,1.6777 0.1032206,0.63609 -0.010035,1.074 -0.4537009,1.75417 -1.2973544,1.98894 -1.0164333,4.21109 0.7467014,5.90662 0.9024124,0.8678 1.2915132,1.06076 2.4244928,1.20232 l 1.3495716,0.16862 1.7644231,3.72244 1.764422,3.72243 -6.1963881,25.05009 c -3.4080119,13.77754 -6.19237644,25.45021 -6.18747244,25.93926 0.010426,1.03963 0.7786115,2.09745 1.80452534,2.4849 0.7255496,0.27401 58.9197072,0.36093 59.6667052,0.0891 z m -58.5961366,-2.7468 c -0.06606,-0.10689 0.6787997,-3.3978 1.6552393,-7.31316 l 1.7753389,-7.11885 4.5897024,-0.004 c 3.14636,-0.003 4.778662,-0.1 5.190586,-0.30988 0.442378,-0.22545 0.741778,-0.76399 1.134983,-2.04156 1.836778,-5.96785 6.368989,-9.8725 12.559099,-10.8201 7.021179,-1.07482 14.224188,3.65494 16.328893,10.72214 0.270567,0.90852 0.675167,1.80423 0.899112,1.99047 0.301051,0.25038 1.669633,0.37093 5.250965,0.46258 l 4.843791,0.12395 1.681329,6.6934 c 0.92473,3.68138 1.684513,6.94441 1.688406,7.25119 l 0.0071,0.55778 h -28.74227 c -15.808215,0 -28.7962584,-0.0875 -28.8623106,-0.19433 z M 48.605402,346.62571 c -0.963686,-3.26157 -4.286633,-7.45237 -7.378948,-9.30613 -2.11177,-1.26595 -4.419936,-2.15652 -6.580723,-2.53907 -1.515722,-0.26835 -1.67335,-0.35199 -1.67335,-0.88794 0,-0.54361 0.09926,-0.59169 1.221809,-0.59169 1.411717,0 2.000939,-0.43429 2.000939,-1.47477 0,-0.93022 -0.395589,-1.20552 -1.865571,-1.29829 l -1.233227,-0.0779 -0.06938,-3.16077 -0.06938,-3.16078 H 34.123 c 1.368359,0 2.072133,-0.50792 2.072133,-1.49548 0,-0.90912 -0.403262,-1.18528 -1.865572,-1.27757 l -1.233226,-0.0779 -0.06938,-3.16077 -0.06938,-3.16077 h 1.067813 c 1.370242,0 2.169749,-0.5481 2.169749,-1.48743 0,-0.93779 -0.799034,-1.48742 -2.162345,-1.48742 h -1.060404 v -3.0988 -3.09881 h 1.060404 c 1.363311,0 2.162345,-0.54962 2.162345,-1.48741 0,-0.93934 -0.799507,-1.48743 -2.169749,-1.48743 h -1.067813 l 0.06938,-3.16076 0.06938,-3.16079 1.233226,-0.0779 c 1.445538,-0.0913 1.865572,-0.36918 1.865572,-1.23449 0,-1.03614 -0.660201,-1.53857 -2.021652,-1.53857 h -1.201102 v -1.60566 c 0,-1.41471 -0.06973,-1.65134 -0.5863,-1.98981 -0.432725,-0.28355 -0.748542,-0.32248 -1.205708,-0.14866 -0.773444,0.29406 -0.934934,0.70877 -0.934934,2.40094 v 1.34319 h -1.115569 c -1.131285,0 -2.107183,0.60592 -2.107183,1.30832 0,0.81405 0.758925,1.39222 1.925934,1.46721 l 1.172864,0.0752 0.06938,3.16077 0.06938,3.16078 h -1.075588 c -0.591577,0 -1.252986,0.13946 -1.469802,0.30989 -1.260734,0.99104 -0.301157,2.66496 1.527697,2.66496 h 1.002883 v 3.0988 3.0988 H 29.24255 c -1.828854,0 -2.788431,1.67392 -1.527697,2.66497 0.216816,0.17042 0.878225,0.30986 1.469802,0.30986 h 1.075588 l -0.06938,3.16079 -0.06938,3.16078 -1.172864,0.0753 c -1.167009,0.075 -1.925934,0.65316 -1.925934,1.46722 0,0.7024 0.975898,1.30831 2.107183,1.30831 h 1.115569 v 3.22275 3.22275 h -1.225464 c -0.985328,0 -1.301081,0.10795 -1.611374,0.55097 -0.510031,0.72817 -0.486791,1.08347 0.109895,1.68016 0.348903,0.3489 0.826344,0.49581 1.611374,0.49581 1.019177,0 1.115569,0.0525 1.115569,0.60853 0,0.51021 -0.150194,0.6337 -0.929639,0.76437 -0.511303,0.0858 -1.587732,0.31582 -2.392064,0.51138 -0.804331,0.19554 -1.491389,0.32569 -1.526793,0.28922 -0.03541,-0.0364 -2.307569,-4.87528 -5.049255,-10.75293 l -4.984884,-10.68662 3.684115,-14.91212 c 2.026261,-8.20166 3.754115,-14.98213 3.839678,-15.0677 0.258871,-0.25887 17.302812,-0.15833 17.564759,0.10362 0.19198,0.19198 15.804194,62.69677 15.819516,63.33474 0.0024,0.10231 -1.651227,0.18594 -3.674852,0.18594 h -3.679317 z m -41.4179465,0.74371 c -0.00764,-0.8017 7.0494105,-28.68838 7.2166875,-28.51778 0.20835,0.21251 8.40418,17.68699 8.40418,17.91872 0,0.0782 -0.329338,0.33672 -0.731858,0.5745 -1.209154,0.71426 -3.389195,2.69344 -4.42016,4.0129 -1.311893,1.67899 -2.706506,4.25969 -2.91379,5.3919 l -0.170196,0.92964 h -3.690968 c -2.7859434,0 -3.6916874,-0.0761 -3.6938955,-0.30988 z M 6.880503,303.25551 c -0.9812282,-1.1348 -0.2200066,-2.93689 1.2583346,-2.97892 2.0590624,-0.0586 2.5952014,2.76251 0.6715272,3.53345 -0.6708383,0.26884 -1.3987812,0.0596 -1.9298618,-0.55453 z"
         style="opacity:1;vector-effect:none;fill:#818285;fill-opacity:1;stroke:none;stroke-width:1.0915575;stroke-linecap:butt;stroke-linejoin:miter;stroke-miterlimit:4;stroke-dasharray:none;stroke-dashoffset:0;stroke-opacity:1;paint-order:markers fill stroke" />
      <g
         id="g4630"
         transform="translate(0,156.43603)">
        <g
           transform="translate(0,7.4942915)"
           id="g4606">
          <g
             aria-label="Rhythm"
             transform="matrix(0.5061419,0,0,0.5061419,-67.228461,-109.38416)"
             style="font-style:normal;font-variant:normal;font-weight:normal;font-stretch:normal;font-size:40px;line-height:1.25;font-family:'Gotham Bold';-inkscape-font-specification:'Gotham Bold, Normal';font-variant-ligatures:normal;font-variant-caps:normal;font-variant-numeric:normal;font-feature-settings:normal;text-align:start;letter-spacing:0px;word-spacing:0px;writing-mode:lr-tb;text-anchor:start;fill:#818285;fill-opacity:1;stroke:none"
             id="flowRoot4530" />
        </g>
      </g>
    </g>
  </g>
</svg>
