<?xml version="1.0" encoding="UTF-8" standalone="no"?>
<!-- Created with Inkscape (http://www.inkscape.org/) -->

<svg
   xmlns:dc="http://purl.org/dc/elements/1.1/"
   xmlns:cc="http://creativecommons.org/ns#"
   xmlns:rdf="http://www.w3.org/1999/02/22-rdf-syntax-ns#"
   xmlns:svg="http://www.w3.org/2000/svg"
   xmlns="http://www.w3.org/2000/svg"
   xmlns:sodipodi="http://sodipodi.sourceforge.net/DTD/sodipodi-0.dtd"
   xmlns:inkscape="http://www.inkscape.org/namespaces/inkscape"
   width="210mm"
   height="125mm"
   viewBox="0 0 210 125"
   version="1.1"
   id="svg8"
   inkscape:version="0.92.1 r15371"
   sodipodi:docname="rhythmForDynamo.svg"
   inkscape:export-filename="C:\Users\johnp\OneDrive\EvolveLAB Transfer\EvolveLAB\Development\EvolveLAB Dynamo Package\beakerForDynamo.png"
   inkscape:export-xdpi="96"
   inkscape:export-ydpi="96">
  <defs
     id="defs2" />
  <sodipodi:namedview
     id="base"
     pagecolor="#ffffff"
     bordercolor="#666666"
     borderopacity="1.0"
     inkscape:pageopacity="0.0"
     inkscape:pageshadow="2"
     inkscape:zoom="0.7"
     inkscape:cx="268.66984"
     inkscape:cy="136.38891"
     inkscape:document-units="mm"
     inkscape:current-layer="flowRoot4497-5"
     showgrid="false"
     inkscape:window-width="1536"
     inkscape:window-height="811"
     inkscape:window-x="-8"
     inkscape:window-y="-8"
     inkscape:window-maximized="1" />
  <metadata
     id="metadata5">
    <rdf:RDF>
      <cc:Work
         rdf:about="">
        <dc:format>image/svg+xml</dc:format>
        <dc:type
           rdf:resource="http://purl.org/dc/dcmitype/StillImage" />
        <dc:title />
      </cc:Work>
    </rdf:RDF>
  </metadata>
  <g
     inkscape:label="Layer 1"
     inkscape:groupmode="layer"
     id="layer1"
     transform="translate(0,-172)">
    <g
       id="g4546"
       transform="translate(6.4144687,-78.309972)">
      <path
         inkscape:connector-curvature="0"
         id="path4528"
         d="m 69.74359,360.37989 c 0.805946,-0.29326 1.868303,-1.53087 2.023299,-2.35708 0.115046,-0.61324 -2.850493,-13.00829 -10.715532,-44.78764 -5.981031,-24.16686 -11.052523,-44.24042 -11.269984,-44.60792 -0.217461,-0.36749 -0.715978,-0.90871 -1.107816,-1.20271 -0.675389,-0.50674 -1.198831,-0.53888 -10.066866,-0.61807 -5.144939,-0.0459 -9.86954,-0.008 -10.499113,0.0845 -0.803296,0.11793 -1.41251,0.43587 -2.042726,1.06609 -0.873406,0.8734 -0.99568,1.29452 -4.456528,15.34839 -1.957165,7.94769 -3.647297,14.36101 -3.755853,14.25181 -0.108551,-0.1092 -0.615424,-1.11661 -1.126382,-2.23869 l -0.929015,-2.04014 0.711575,-1.03346 c 0.985827,-1.43176 1.01591,-4.04309 0.06294,-5.46419 -0.876565,-1.30716 -2.204035,-2.11696 -3.775284,-2.30305 -0.724612,-0.0858 -1.317477,-0.25097 -1.317477,-0.36699 0,-0.43444 -0.862317,-1.05094 -1.469983,-1.05094 -0.9876065,0 -1.5500945,0.73911 -1.3765155,1.80876 0.111284,0.68577 -0.01082,1.15789 -0.489143,1.89119 -1.398701,2.14431 -1.095835,4.54006 0.805032,6.36803 0.972907,0.9356 1.3924035,1.14363 2.6138895,1.29625 l 1.454997,0.18179 1.902256,4.01322 1.902254,4.01323 -6.680436,27.00694 c -3.6742385,14.85382 -6.6761115,27.43833 -6.6708245,27.96559 0.01124,1.12084 0.839435,2.26129 1.945491,2.67901 0.782228,0.29542 63.5223885,0.38912 64.3277395,0.0961 z M 6.5700485,357.4185 c -0.07122,-0.11523 0.731826,-3.66323 1.784543,-7.88445 l 1.9140245,-7.67494 4.94824,-0.004 c 3.392148,-0.003 5.151961,-0.10777 5.596064,-0.33409 0.476935,-0.24306 0.799724,-0.82367 1.223645,-2.20103 1.980263,-6.43405 6.86652,-10.64373 13.54019,-11.66535 7.569657,-1.15878 15.33535,3.94045 17.604471,11.55974 0.291702,0.97948 0.727909,1.94516 0.969348,2.14595 0.324568,0.26993 1.800061,0.39991 5.661159,0.49872 l 5.222177,0.13363 1.812671,7.21628 c 0.996969,3.96895 1.816104,7.48689 1.820301,7.81763 l 0.0076,0.60135 H 37.687021 c -17.043119,0 -31.0457605,-0.0943 -31.1169725,-0.20951 z M 55.861836,337.51598 c -1.038966,-3.51635 -4.621496,-8.03454 -7.955376,-10.03311 -2.276737,-1.36484 -4.765212,-2.32498 -7.094795,-2.73742 -1.634127,-0.28931 -1.804069,-0.37948 -1.804069,-0.9573 0,-0.58608 0.107027,-0.63791 1.317255,-0.63791 1.521997,0 2.157248,-0.46821 2.157248,-1.58998 0,-1.00288 -0.426492,-1.29969 -2.011307,-1.39971 l -1.329563,-0.0839 -0.0748,-3.40769 -0.0748,-3.40769 h 1.256469 c 1.475253,0 2.234004,-0.5476 2.234004,-1.61231 0,-0.98014 -0.434763,-1.27787 -2.011307,-1.37737 l -1.329563,-0.0839 -0.0748,-3.40769 -0.0748,-3.40769 h 1.151228 c 1.477283,0 2.339245,-0.5909 2.339245,-1.60362 0,-1.01104 -0.861452,-1.60361 -2.331262,-1.60361 h -1.143241 v -3.34087 -3.34087 h 1.143241 c 1.46981,0 2.331262,-0.59257 2.331262,-1.60362 0,-1.01272 -0.861962,-1.60362 -2.339245,-1.60362 h -1.151228 l 0.0748,-3.40768 0.0748,-3.40769 1.329563,-0.0839 c 1.558462,-0.0984 2.011307,-0.39802 2.011307,-1.33093 0,-1.11707 -0.711774,-1.65876 -2.179579,-1.65876 h -1.294924 v -1.73109 c 0,-1.52522 -0.07517,-1.78034 -0.6321,-2.14525 -0.466529,-0.30569 -0.807016,-0.34767 -1.299895,-0.16027 -0.833864,0.31703 -1.00797,0.76414 -1.00797,2.58849 v 1.44812 H 34.86492 c -1.219658,0 -2.271792,0.65325 -2.271792,1.41052 0,0.87765 0.818211,1.50098 2.076384,1.58183 l 1.264486,0.0812 0.0748,3.40769 0.0748,3.40768 h -1.15961 c -0.637789,0 -1.350867,0.15035 -1.584619,0.33409 -1.35922,1.06847 -0.324683,2.87315 1.647037,2.87315 h 1.081225 v 3.34087 3.34087 h -1.081225 c -1.97172,0 -3.006257,1.80468 -1.647037,2.87315 0.233752,0.18374 0.94683,0.33408 1.584619,0.33408 h 1.15961 l -0.0748,3.40769 -0.0748,3.40769 -1.264486,0.0813 c -1.258173,0.0808 -2.076384,0.70418 -2.076384,1.58183 0,0.75727 1.052134,1.41051 2.271792,1.41051 h 1.202714 v 3.47451 3.4745 H 34.74644 c -1.0623,0 -1.402718,0.1164 -1.737252,0.59401 -0.549873,0.78506 -0.524817,1.16812 0.11848,1.81142 0.376159,0.37616 0.890898,0.53454 1.737252,0.53454 1.098793,0 1.202714,0.0567 1.202714,0.65606 0,0.55007 -0.161925,0.68321 -1.00226,0.82408 -0.551244,0.0924 -1.711762,0.3405 -2.578926,0.55133 -0.867164,0.21082 -1.607894,0.35114 -1.646063,0.31182 -0.03817,-0.0393 -2.487832,-5.25614 -5.443693,-11.59293 L 20.022401,302.3792 23.99431,286.30217 c 2.184548,-8.84236 4.047379,-16.1525 4.139626,-16.24475 0.279093,-0.27909 18.654471,-0.1707 18.93688,0.11171 0.206978,0.20697 17.038784,67.5945 17.055303,68.28232 0.0026,0.11025 -1.780218,0.20045 -3.961923,0.20045 h -3.966738 z m -44.653428,0.8018 c -0.0082,-0.86433 7.600095,-30.92945 7.78044,-30.74551 0.224626,0.22911 9.060696,19.06865 9.060696,19.31848 0,0.0843 -0.355065,0.36302 -0.78903,0.61937 -1.30361,0.77006 -3.653951,2.90385 -4.765452,4.32638 -1.414376,1.81015 -2.917934,4.59245 -3.141409,5.81311 l -0.183491,1.00226 h -3.979299 c -3.003576,0 -3.980074,-0.0819 -3.982455,-0.33409 z m -0.330931,-47.55999 c -1.0578795,-1.22345 -0.237193,-3.16631 1.356633,-3.21163 2.219912,-0.0631 2.797934,2.97832 0.723985,3.80947 -0.723242,0.28985 -1.508051,0.0643 -2.080618,-0.59784 z"
         style="opacity:1;vector-effect:none;fill:#818285;fill-opacity:1;stroke:none;stroke-width:1.17682767;stroke-linecap:butt;stroke-linejoin:miter;stroke-miterlimit:4;stroke-dasharray:none;stroke-dashoffset:0;stroke-opacity:1;paint-order:markers fill stroke" />
      <g
         id="g4630"
         transform="translate(0,156.43603)">
        <g
           transform="matrix(0.80204177,0,0,0.80204177,10.682419,27.808664)"
           id="g4565">
          <g
             aria-label="sixtysecond"
             transform="matrix(0.26458333,0,0,0.26458333,-4.8108515,84.189902)"
             style="font-style:normal;font-variant:normal;font-weight:normal;font-stretch:normal;font-size:40px;line-height:1.25;font-family:'Gotham Book';-inkscape-font-specification:'Gotham Book, Normal';font-variant-ligatures:normal;font-variant-caps:normal;font-variant-numeric:normal;font-feature-settings:normal;text-align:start;letter-spacing:0px;word-spacing:0px;writing-mode:lr-tb;text-anchor:start;fill:#818285;fill-opacity:1;stroke:none"
             id="flowRoot4497">
            <path
               d="m 322.41672,406.14454 q -2.24,0 -4.52,-0.8 -2.28,-0.84 -4.04,-2.24 l 1.56,-2.2 q 1.68,1.28 3.48,1.96 1.84,0.68 3.68,0.68 1.88,0 3.08,-0.88 1.2,-0.88 1.2,-2.4 v -0.08 q 0,-0.76 -0.44,-1.32 -0.4,-0.56 -1.12,-0.96 -0.72,-0.44 -1.68,-0.76 -0.92,-0.32 -1.92,-0.6 -1.2,-0.36 -2.44,-0.76 -1.2,-0.44 -2.2,-1.08 -0.96,-0.64 -1.6,-1.6 -0.6,-0.96 -0.6,-2.4 v -0.08 q 0,-1.32 0.52,-2.4 0.52,-1.12 1.44,-1.88 0.96,-0.8 2.24,-1.2 1.32,-0.44 2.84,-0.44 1.92,0 3.88,0.64 1.96,0.6 3.56,1.64 l -1.4,2.32 q -1.44,-0.92 -3.04,-1.44 -1.56,-0.56 -3.08,-0.56 -1.84,0 -2.92,0.88 -1.08,0.84 -1.08,2.12 v 0.08 q 0,0.72 0.44,1.28 0.44,0.52 1.16,0.92 0.76,0.4 1.72,0.72 0.96,0.32 2,0.64 1.2,0.36 2.36,0.8 1.2,0.44 2.16,1.12 0.96,0.68 1.52,1.64 0.6,0.96 0.6,2.36 v 0.08 q 0,1.48 -0.6,2.64 -0.56,1.12 -1.56,1.92 -0.96,0.8 -2.32,1.24 -1.32,0.4 -2.88,0.4 z"
               style=""
               id="path4548" />
            <path
               d="m 335.77859,385.06454 h 3.08 v 20.68 h -3.08 z m -0.2,-7.92 h 3.52 v 3.4 h -3.52 z"
               style=""
               id="path4550" />
            <path
               d="m 352.28547,395.22454 -7.8,-10.16 h 3.52 l 6.12,8 6.12,-8 h 3.44 l -7.84,10.08 8.16,10.6 h -3.56 l -6.4,-8.44 -6.44,8.44 h -3.44 z"
               style=""
               id="path4552" />
            <path
               d="m 375.93422,406.10454 q -1.24,0 -2.32,-0.32 -1.08,-0.32 -1.88,-1 -0.76,-0.72 -1.2,-1.84 -0.44,-1.12 -0.44,-2.68 v -12.48 h -2.88 v -2.72 h 2.88 v -6.24 h 3.08 v 6.24 h 6.56 v 2.72 h -6.56 v 12.08 q 0,1.92 0.96,2.68 0.96,0.76 2.52,0.76 0.8,0 1.48,-0.16 0.72,-0.16 1.52,-0.56 v 2.64 q -0.8,0.44 -1.72,0.64 -0.88,0.24 -2,0.24 z"
               style=""
               id="path4554" />
            <path
               d="m 388.38609,412.26454 q -1.28,0 -2.32,-0.28 -1.04,-0.24 -2.08,-0.76 l 1.04,-2.44 q 0.76,0.4 1.48,0.56 0.76,0.2 1.76,0.2 1.4,0 2.36,-0.84 0.96,-0.84 1.88,-3.04 l -9.4,-20.6 h 3.4 l 7.52,17.24 6.64,-17.24 h 3.28 l -8.68,21.36 q -1.32,3.2 -2.96,4.52 -1.6,1.32 -3.92,1.32 z"
               style=""
               id="path4556" />
            <path
               d="m 415.69797,406.14454 q -2.24,0 -4.52,-0.8 -2.28,-0.84 -4.04,-2.24 l 1.56,-2.2 q 1.68,1.28 3.48,1.96 1.84,0.68 3.68,0.68 1.88,0 3.08,-0.88 1.2,-0.88 1.2,-2.4 v -0.08 q 0,-0.76 -0.44,-1.32 -0.4,-0.56 -1.12,-0.96 -0.72,-0.44 -1.68,-0.76 -0.92,-0.32 -1.92,-0.6 -1.2,-0.36 -2.44,-0.76 -1.2,-0.44 -2.2,-1.08 -0.96,-0.64 -1.6,-1.6 -0.6,-0.96 -0.6,-2.4 v -0.08 q 0,-1.32 0.52,-2.4 0.52,-1.12 1.44,-1.88 0.96,-0.8 2.24,-1.2 1.32,-0.44 2.84,-0.44 1.92,0 3.88,0.64 1.96,0.6 3.56,1.64 l -1.4,2.32 q -1.44,-0.92 -3.04,-1.44 -1.56,-0.56 -3.08,-0.56 -1.84,0 -2.92,0.88 -1.08,0.84 -1.08,2.12 v 0.08 q 0,0.72 0.44,1.28 0.44,0.52 1.16,0.92 0.76,0.4 1.72,0.72 0.96,0.32 2,0.64 1.2,0.36 2.36,0.8 1.2,0.44 2.16,1.12 0.96,0.68 1.52,1.64 0.6,0.96 0.6,2.36 v 0.08 q 0,1.48 -0.6,2.64 -0.56,1.12 -1.56,1.92 -0.96,0.8 -2.32,1.24 -1.32,0.4 -2.88,0.4 z"
               style=""
               id="path4558" />
            <path
               d="m 443.93984,394.18454 q -0.12,-1.4 -0.6,-2.64 -0.48,-1.28 -1.32,-2.24 -0.8,-0.96 -2,-1.52 -1.16,-0.56 -2.68,-0.56 -1.32,0 -2.48,0.52 -1.16,0.52 -2.04,1.48 -0.88,0.92 -1.48,2.2 -0.56,1.28 -0.72,2.76 z m -13.32,2.48 q 0.16,1.64 0.8,2.92 0.64,1.28 1.64,2.16 1,0.88 2.24,1.36 1.24,0.44 2.6,0.44 2.16,0 3.68,-0.8 1.56,-0.8 2.84,-2.12 l 1.92,1.72 q -1.56,1.76 -3.56,2.84 -2,1.04 -4.96,1.04 -2.12,0 -4,-0.76 -1.88,-0.8 -3.28,-2.2 -1.4,-1.44 -2.24,-3.44 -0.8,-2 -0.8,-4.4 0,-2.24 0.72,-4.2 0.76,-2 2.08,-3.44 1.32,-1.48 3.12,-2.32 1.84,-0.84 4,-0.84 2.28,0 4.08,0.88 1.8,0.84 3.04,2.32 1.24,1.48 1.88,3.48 0.64,2 0.64,4.28 0,0.2 0,0.48 0,0.24 -0.04,0.6 z"
               style=""
               id="path4560" />
            <path
               d="m 461.77172,406.22454 q -2.28,0 -4.24,-0.84 -1.92,-0.88 -3.36,-2.32 -1.4,-1.48 -2.2,-3.44 -0.8,-1.96 -0.8,-4.12 v -0.08 q 0,-2.2 0.8,-4.16 0.8,-1.96 2.2,-3.44 1.44,-1.48 3.36,-2.32 1.96,-0.88 4.24,-0.88 1.48,0 2.68,0.28 1.2,0.28 2.2,0.8 1,0.48 1.84,1.16 0.84,0.68 1.56,1.44 l -2.04,2.16 q -1.24,-1.28 -2.72,-2.2 -1.44,-0.92 -3.56,-0.92 -1.56,0 -2.92,0.64 -1.36,0.6 -2.36,1.68 -1,1.08 -1.56,2.56 -0.56,1.44 -0.56,3.12 v 0.08 q 0,1.68 0.56,3.16 0.6,1.44 1.6,2.56 1.04,1.08 2.4,1.72 1.4,0.6 3.04,0.6 2,0 3.52,-0.88 1.56,-0.88 2.8,-2.2 l 1.96,1.84 q -1.56,1.76 -3.56,2.88 -1.96,1.12 -4.88,1.12 z"
               style=""
               id="path4562" />
            <path
               d="m 484.78422,403.46454 q 1.68,0 3.08,-0.64 1.4,-0.64 2.4,-1.72 1,-1.08 1.56,-2.52 0.56,-1.44 0.56,-3.08 v -0.08 q 0,-1.68 -0.6,-3.12 -0.56,-1.48 -1.6,-2.56 -1.04,-1.12 -2.44,-1.76 -1.4,-0.64 -3.04,-0.64 -1.68,0 -3.08,0.64 -1.4,0.64 -2.4,1.72 -0.96,1.08 -1.52,2.56 -0.56,1.44 -0.56,3.08 v 0.08 q 0,1.68 0.56,3.16 0.6,1.44 1.6,2.52 1.04,1.08 2.44,1.72 1.4,0.64 3.04,0.64 z m -0.08,2.76 q -2.32,0 -4.28,-0.84 -1.96,-0.88 -3.4,-2.32 -1.44,-1.48 -2.24,-3.4 -0.8,-1.96 -0.8,-4.16 v -0.08 q 0,-2.2 0.8,-4.16 0.8,-1.96 2.24,-3.44 1.44,-1.48 3.4,-2.32 2,-0.88 4.36,-0.88 2.32,0 4.28,0.88 2,0.84 3.44,2.32 1.44,1.44 2.24,3.4 0.8,1.92 0.8,4.12 v 0.08 q 0,2.2 -0.84,4.16 -0.8,1.96 -2.24,3.44 -1.44,1.48 -3.44,2.36 -2,0.84 -4.32,0.84 z"
               style=""
               id="path4564" />
            <path
               d="m 501.12359,385.06454 h 3.08 v 3.6 q 1.04,-1.68 2.72,-2.84 1.68,-1.2 4.36,-1.2 1.88,0 3.32,0.6 1.48,0.6 2.48,1.72 1.04,1.08 1.56,2.6 0.56,1.52 0.56,3.36 v 12.84 h -3.08 v -12.08 q 0,-2.88 -1.48,-4.56 -1.48,-1.68 -4.24,-1.68 -1.32,0 -2.48,0.48 -1.12,0.44 -1.96,1.32 -0.84,0.84 -1.32,2.04 -0.44,1.2 -0.44,2.64 v 11.84 h -3.08 z"
               style=""
               id="path4566" />
            <path
               d="m 534.97297,403.42454 q 1.44,0 2.76,-0.56 1.36,-0.6 2.4,-1.64 1.08,-1.08 1.68,-2.52 0.64,-1.48 0.64,-3.28 v -0.08 q 0,-1.8 -0.64,-3.24 -0.6,-1.48 -1.68,-2.52 -1.04,-1.04 -2.4,-1.6 -1.32,-0.6 -2.76,-0.6 -1.52,0 -2.84,0.56 -1.32,0.52 -2.32,1.56 -0.96,1 -1.56,2.48 -0.56,1.48 -0.56,3.36 v 0.08 q 0,1.84 0.56,3.32 0.6,1.48 1.6,2.52 1,1.04 2.32,1.6 1.32,0.56 2.8,0.56 z m -0.56,2.76 q -1.88,0 -3.64,-0.72 -1.76,-0.72 -3.16,-2.08 -1.4,-1.4 -2.24,-3.36 -0.84,-2 -0.84,-4.56 v -0.08 q 0,-2.52 0.84,-4.52 0.84,-2 2.24,-3.36 1.4,-1.4 3.16,-2.12 1.76,-0.76 3.64,-0.76 1.44,0 2.64,0.36 1.2,0.36 2.16,0.96 0.96,0.6 1.72,1.4 0.8,0.8 1.4,1.68 v -12.48 h 3.08 v 29.2 h -3.08 v -4.16 q -0.64,0.92 -1.44,1.76 -0.76,0.84 -1.72,1.48 -0.96,0.64 -2.16,1 -1.16,0.36 -2.6,0.36 z"
               style=""
               id="path4568" />
          </g>
          <g
             aria-label="revit"
             transform="matrix(0.26458333,0,0,0.26458333,58.458103,84.403947)"
             style="font-style:normal;font-variant:normal;font-weight:normal;font-stretch:normal;font-size:40px;line-height:1.25;font-family:'Gotham Bold';-inkscape-font-specification:'Gotham Bold, Normal';font-variant-ligatures:normal;font-variant-caps:normal;font-variant-numeric:normal;font-feature-settings:normal;text-align:start;letter-spacing:0px;word-spacing:0px;writing-mode:lr-tb;text-anchor:start;fill:#818285;fill-opacity:1;stroke:none"
             id="flowRoot4497-5">
            <path
               d="m 314.85672,404.93555 h 6.08 v -7.92 c 0,-5.12 2.48,-7.56 6.52,-7.56 h 0.32 v -6.36 c -3.6,-0.16 -5.6,1.76 -6.84,4.72 v -4.32 h -6.08 z"
               style=""
               id="path4571" />
            <path
               d="m 341.11047,405.41555 c 3.88,0 6.76,-1.52 8.76,-4 l -3.48,-3.08 c -1.68,1.56 -3.16,2.2 -5.2,2.2 -2.72,0 -4.64,-1.44 -5.24,-4.2 h 14.92 c 0.04,-0.56 0.08,-1.12 0.08,-1.6 0,-6.08 -3.28,-11.64 -10.44,-11.64 -6.24,0 -10.6,5.04 -10.6,11.16 v 0.08 c 0,6.56 4.76,11.08 11.2,11.08 z m -5.24,-12.88 c 0.48,-2.76 2.12,-4.56 4.64,-4.56 2.56,0 4.16,1.84 4.52,4.56 z"
               style=""
               id="path4573" />
            <path
               d="m 360.98609,405.09555 h 5.52 l 8.44,-21.6 h -6.32 l -4.84,14.36 -4.8,-14.36 h -6.44 z"
               style=""
               id="path4575" />
            <path
               d="m 378.57047,381.13555 h 6.4 v -5.4 h -6.4 z m 0.16,23.8 h 6.08 v -21.44 h -6.08 z"
               style=""
               id="path4577" />
            <path
               d="m 397.79984,405.29555 c 2.04,0 3.52,-0.48 4.8,-1.24 v -4.88 c -0.88,0.48 -1.88,0.76 -3,0.76 -1.36,0 -1.96,-0.68 -1.96,-2.08 v -9.16 h 5.04 v -5.2 h -5.04 v -5.48 h -6.08 v 5.48 h -2.56 v 5.2 h 2.56 v 10.16 c 0,4.96 2.52,6.44 6.24,6.44 z"
               style=""
               id="path4579" />
          </g>
          <g
             aria-label=".com"
             transform="matrix(0.26458333,0,0,0.26458333,83.068388,84.189902)"
             style="font-style:normal;font-variant:normal;font-weight:normal;font-stretch:normal;font-size:40px;line-height:1.25;font-family:'Gotham Book';-inkscape-font-specification:'Gotham Book, Normal';font-variant-ligatures:normal;font-variant-caps:normal;font-variant-numeric:normal;font-feature-settings:normal;text-align:start;letter-spacing:0px;word-spacing:0px;writing-mode:lr-tb;text-anchor:start;fill:#818285;fill-opacity:1;stroke:none"
             id="flowRoot4497-57">
            <path
               d="m 315.21672,401.54454 h 3.68 v 4.2 h -3.68 z"
               style=""
               id="path4582" />
            <path
               d="m 334.66234,406.22454 q -2.28,0 -4.24,-0.84 -1.92,-0.88 -3.36,-2.32 -1.4,-1.48 -2.2,-3.44 -0.8,-1.96 -0.8,-4.12 v -0.08 q 0,-2.2 0.8,-4.16 0.8,-1.96 2.2,-3.44 1.44,-1.48 3.36,-2.32 1.96,-0.88 4.24,-0.88 1.48,0 2.68,0.28 1.2,0.28 2.2,0.8 1,0.48 1.84,1.16 0.84,0.68 1.56,1.44 l -2.04,2.16 q -1.24,-1.28 -2.72,-2.2 -1.44,-0.92 -3.56,-0.92 -1.56,0 -2.92,0.64 -1.36,0.6 -2.36,1.68 -1,1.08 -1.56,2.56 -0.56,1.44 -0.56,3.12 v 0.08 q 0,1.68 0.56,3.16 0.6,1.44 1.6,2.56 1.04,1.08 2.4,1.72 1.4,0.6 3.04,0.6 2,0 3.52,-0.88 1.56,-0.88 2.8,-2.2 l 1.96,1.84 q -1.56,1.76 -3.56,2.88 -1.96,1.12 -4.88,1.12 z"
               style=""
               id="path4584" />
            <path
               d="m 357.67484,403.46454 q 1.68,0 3.08,-0.64 1.4,-0.64 2.4,-1.72 1,-1.08 1.56,-2.52 0.56,-1.44 0.56,-3.08 v -0.08 q 0,-1.68 -0.6,-3.12 -0.56,-1.48 -1.6,-2.56 -1.04,-1.12 -2.44,-1.76 -1.4,-0.64 -3.04,-0.64 -1.68,0 -3.08,0.64 -1.4,0.64 -2.4,1.72 -0.96,1.08 -1.52,2.56 -0.56,1.44 -0.56,3.08 v 0.08 q 0,1.68 0.56,3.16 0.6,1.44 1.6,2.52 1.04,1.08 2.44,1.72 1.4,0.64 3.04,0.64 z m -0.08,2.76 q -2.32,0 -4.28,-0.84 -1.96,-0.88 -3.4,-2.32 -1.44,-1.48 -2.24,-3.4 -0.8,-1.96 -0.8,-4.16 v -0.08 q 0,-2.2 0.8,-4.16 0.8,-1.96 2.24,-3.44 1.44,-1.48 3.4,-2.32 2,-0.88 4.36,-0.88 2.32,0 4.28,0.88 2,0.84 3.44,2.32 1.44,1.44 2.24,3.4 0.8,1.92 0.8,4.12 v 0.08 q 0,2.2 -0.84,4.16 -0.8,1.96 -2.24,3.44 -1.44,1.48 -3.44,2.36 -2,0.84 -4.32,0.84 z"
               style=""
               id="path4586" />
            <path
               d="m 374.01422,385.06454 h 3.08 v 3.48 q 0.52,-0.76 1.12,-1.48 0.64,-0.72 1.44,-1.24 0.8,-0.56 1.8,-0.88 1,-0.32 2.32,-0.32 2.52,0 4.16,1.2 1.64,1.16 2.48,2.92 0.56,-0.84 1.24,-1.6 0.72,-0.76 1.6,-1.32 0.88,-0.56 1.96,-0.88 1.12,-0.32 2.48,-0.32 3.6,0 5.64,2.24 2.04,2.2 2.04,6.08 v 12.8 h -3.08 v -12.08 q 0,-3 -1.44,-4.6 -1.4,-1.64 -3.92,-1.64 -1.16,0 -2.2,0.44 -1.04,0.4 -1.84,1.24 -0.76,0.8 -1.24,2 -0.44,1.2 -0.44,2.72 v 11.92 h -3.04 v -12.16 q 0,-2.92 -1.44,-4.52 -1.4,-1.64 -3.88,-1.64 -1.24,0 -2.28,0.48 -1.04,0.48 -1.84,1.36 -0.76,0.88 -1.2,2.08 -0.44,1.16 -0.44,2.6 v 11.8 h -3.08 z"
               style=""
               id="path4588" />
          </g>
        </g>
        <g
           transform="translate(0,7.4942915)"
           id="g4606">
          <g
             aria-label="Rhythm"
             transform="matrix(0.5061419,0,0,0.5061419,-67.228461,-109.38416)"
             style="font-style:normal;font-variant:normal;font-weight:normal;font-stretch:normal;font-size:40px;line-height:1.25;font-family:'Gotham Bold';-inkscape-font-specification:'Gotham Bold, Normal';font-variant-ligatures:normal;font-variant-caps:normal;font-variant-numeric:normal;font-feature-settings:normal;text-align:start;letter-spacing:0px;word-spacing:0px;writing-mode:lr-tb;text-anchor:start;fill:#818285;fill-opacity:1;stroke:none"
             id="flowRoot4530">
            <path
               d="m 277.11195,495.84961 h 6.16 v -8.96 h 4.84 l 6,8.96 h 7.2 l -6.84,-10 c 3.56,-1.32 6,-4.16 6,-8.68 v -0.08 c 0,-2.64 -0.84,-4.84 -2.4,-6.4 -1.84,-1.84 -4.6,-2.84 -8.16,-2.84 h -12.8 z m 6.16,-14.4 v -8.04 h 6.12 c 3,0 4.84,1.36 4.84,4 v 0.08 c 0,2.36 -1.72,3.96 -4.72,3.96 z"
               style=""
               id="path4515" />
            <path
               d="m 305.3782,495.84961 h 6.08 v -11.96 c 0,-2.88 1.48,-4.36 3.8,-4.36 2.32,0 3.68,1.48 3.68,4.36 v 11.96 h 6.08 v -13.88 c 0,-4.92 -2.68,-7.96 -7.28,-7.96 -3.08,0 -4.88,1.64 -6.28,3.44 v -10.8 h -6.08 z"
               style=""
               id="path4517" />
            <path
               d="m 334.79508,502.36961 c 3.64,0 5.4,-1.64 7.04,-6 l 8.24,-21.96 h -6.32 l -4.68,14.6 -4.88,-14.6 h -6.44 l 8.4,21.52 c -0.52,1.08 -1.08,1.4 -2.12,1.4 -0.8,0 -1.8,-0.36 -2.6,-0.84 l -2.04,4.4 c 1.56,0.92 3.2,1.48 5.4,1.48 z"
               style=""
               id="path4519" />
            <path
               d="m 360.89945,496.20961 c 2.04,0 3.52,-0.48 4.8,-1.24 v -4.88 c -0.88,0.48 -1.88,0.76 -3,0.76 -1.36,0 -1.96,-0.68 -1.96,-2.08 v -9.16 h 5.04 v -5.2 h -5.04 v -5.48 h -6.08 v 5.48 h -2.56 v 5.2 h 2.56 v 10.16 c 0,4.96 2.52,6.44 6.24,6.44 z"
               style=""
               id="path4521" />
            <path
               d="m 370.22195,495.84961 h 6.08 v -11.96 c 0,-2.88 1.48,-4.36 3.8,-4.36 2.32,0 3.68,1.48 3.68,4.36 v 11.96 h 6.08 v -13.88 c 0,-4.92 -2.68,-7.96 -7.28,-7.96 -3.08,0 -4.88,1.64 -6.28,3.44 v -10.8 h -6.08 z"
               style=""
               id="path4523" />
            <path
               d="m 395.14383,495.84961 h 6.08 v -11.96 c 0,-2.88 1.4,-4.36 3.68,-4.36 2.28,0 3.56,1.48 3.56,4.36 v 11.96 h 6.08 v -11.96 c 0,-2.88 1.4,-4.36 3.68,-4.36 2.28,0 3.56,1.48 3.56,4.36 v 11.96 h 6.08 v -13.96 c 0,-5.16 -2.72,-7.88 -7.24,-7.88 -2.92,0 -5.16,1.2 -7.04,3.4 -1.12,-2.16 -3.24,-3.4 -6.04,-3.4 -3.08,0 -4.92,1.64 -6.32,3.44 v -3.04 h -6.08 z"
               style=""
               id="path4525" />
          </g>
          <g
             aria-label="for Dynamo"
             transform="matrix(0.50614191,0,0,0.50614191,-67.228465,-90.675303)"
             style="font-style:normal;font-variant:normal;font-weight:normal;font-stretch:normal;font-size:40px;line-height:1.25;font-family:'Gotham Bold';-inkscape-font-specification:'Gotham Bold, Normal';font-variant-ligatures:normal;font-variant-caps:normal;font-variant-numeric:normal;font-feature-settings:normal;text-align:start;letter-spacing:0px;word-spacing:0px;writing-mode:lr-tb;text-anchor:start;fill:#818285;fill-opacity:1;stroke:none"
             id="flowRoot4530-5">
            <path
               d="m 277.51195,495.84961 h 6.08 v -16.24 h 4.84 v -4.96 h -4.92 v -0.84 c 0,-1.6 0.8,-2.32 2.2,-2.32 1.04,0 1.88,0.2 2.76,0.52 v -5.04 c -1.12,-0.36 -2.4,-0.6 -4.32,-0.6 -2.16,0 -3.8,0.56 -4.92,1.68 -1.12,1.12 -1.72,2.84 -1.72,5.2 v 1.36 h -2.52 v 5 h 2.52 z"
               style=""
               id="path4529" />
            <path
               d="m 301.91383,496.32961 c 6.68,0 11.64,-5 11.64,-11.16 v -0.08 c 0,-6.16 -4.92,-11.08 -11.56,-11.08 -6.68,0 -11.64,5 -11.64,11.16 v 0.08 c 0,6.16 4.92,11.08 11.56,11.08 z m 0.08,-5.24 c -3.36,0 -5.64,-2.76 -5.64,-5.92 v -0.08 c 0,-3.16 2.08,-5.84 5.56,-5.84 3.36,0 5.64,2.76 5.64,5.92 v 0.08 c 0,3.16 -2.08,5.84 -5.56,5.84 z"
               style=""
               id="path4531" />
            <path
               d="m 317.95633,495.84961 h 6.08 v -7.92 c 0,-5.12 2.48,-7.56 6.52,-7.56 h 0.32 v -6.36 c -3.6,-0.16 -5.6,1.76 -6.84,4.72 v -4.32 h -6.08 z"
               style=""
               id="path4533" />
            <path
               d="m 347.34633,495.84961 h 10.92 c 8.8,0 14.88,-6.12 14.88,-14 v -0.08 c 0,-7.88 -6.08,-13.92 -14.88,-13.92 h -10.92 z m 6.16,-5.56 v -16.88 h 4.76 c 5.04,0 8.44,3.48 8.44,8.44 v 0.08 c 0,4.96 -3.4,8.36 -8.44,8.36 z"
               style=""
               id="path4535" />
            <path
               d="m 383.07633,502.36961 c 3.64,0 5.4,-1.64 7.04,-6 l 8.24,-21.96 h -6.32 l -4.68,14.6 -4.88,-14.6 h -6.44 l 8.4,21.52 c -0.52,1.08 -1.08,1.4 -2.12,1.4 -0.8,0 -1.8,-0.36 -2.6,-0.84 l -2.04,4.4 c 1.56,0.92 3.2,1.48 5.4,1.48 z"
               style=""
               id="path4537" />
            <path
               d="m 401.9407,495.84961 h 6.08 v -11.96 c 0,-2.88 1.48,-4.36 3.8,-4.36 2.32,0 3.68,1.48 3.68,4.36 v 11.96 h 6.08 v -13.88 c 0,-4.92 -2.68,-7.96 -7.28,-7.96 -3.08,0 -4.88,1.64 -6.28,3.44 v -3.04 h -6.08 z"
               style=""
               id="path4539" />
            <path
               d="m 432.94258,496.24961 c 2.96,0 5,-1.08 6.48,-2.72 v 2.32 h 5.88 v -12.44 c 0,-2.88 -0.72,-5.24 -2.32,-6.84 -1.52,-1.52 -3.92,-2.4 -7.24,-2.4 -3.64,0 -5.96,0.68 -8.32,1.72 l 1.52,4.64 c 1.96,-0.72 3.6,-1.16 5.92,-1.16 3.04,0 4.6,1.4 4.6,3.92 v 0.36 c -1.52,-0.52 -3.08,-0.88 -5.24,-0.88 -5.08,0 -8.64,2.16 -8.64,6.84 v 0.08 c 0,4.24 3.32,6.56 7.36,6.56 z m 1.84,-4.2 c -1.96,0 -3.32,-0.96 -3.32,-2.6 v -0.08 c 0,-1.92 1.6,-2.96 4.2,-2.96 1.48,0 2.84,0.32 3.88,0.8 v 1.08 c 0,2.2 -1.92,3.76 -4.76,3.76 z"
               style=""
               id="path4541" />
            <path
               d="m 450.53445,495.84961 h 6.08 v -11.96 c 0,-2.88 1.4,-4.36 3.68,-4.36 2.28,0 3.56,1.48 3.56,4.36 v 11.96 h 6.08 v -11.96 c 0,-2.88 1.4,-4.36 3.68,-4.36 2.28,0 3.56,1.48 3.56,4.36 v 11.96 h 6.08 v -13.96 c 0,-5.16 -2.72,-7.88 -7.24,-7.88 -2.92,0 -5.16,1.2 -7.04,3.4 -1.12,-2.16 -3.24,-3.4 -6.04,-3.4 -3.08,0 -4.92,1.64 -6.32,3.44 v -3.04 h -6.08 z"
               style=""
               id="path4543" />
            <path
               d="m 499.0232,496.32961 c 6.68,0 11.64,-5 11.64,-11.16 v -0.08 c 0,-6.16 -4.92,-11.08 -11.56,-11.08 -6.68,0 -11.64,5 -11.64,11.16 v 0.08 c 0,6.16 4.92,11.08 11.56,11.08 z m 0.08,-5.24 c -3.36,0 -5.64,-2.76 -5.64,-5.92 v -0.08 c 0,-3.16 2.08,-5.84 5.56,-5.84 3.36,0 5.64,2.76 5.64,5.92 v 0.08 c 0,3.16 -2.08,5.84 -5.56,5.84 z"
               style=""
               id="path4545" />
          </g>
        </g>
      </g>
    </g>
  </g>
</svg>
