<?xml version="1.0" encoding="UTF-8" standalone="no"?>
<!-- Created with Inkscape (http://www.inkscape.org/) -->

<svg
   xmlns:dc="http://purl.org/dc/elements/1.1/"
   xmlns:cc="http://creativecommons.org/ns#"
   xmlns:rdf="http://www.w3.org/1999/02/22-rdf-syntax-ns#"
   xmlns:svg="http://www.w3.org/2000/svg"
   xmlns="http://www.w3.org/2000/svg"
   xmlns:sodipodi="http://sodipodi.sourceforge.net/DTD/sodipodi-0.dtd"
   xmlns:inkscape="http://www.inkscape.org/namespaces/inkscape"
   width="3in"
   height="3in"
   viewBox="0 0 76.2 76.2"
   version="1.1"
   id="svg8"
   inkscape:version="0.92.1 r15371"
   sodipodi:docname="sixtysecndrevit.com.svg"
   inkscape:export-filename="C:\Users\johnp\OneDrive\EvolveLAB Transfer\EvolveLAB\Development\EvolveLAB Dynamo Package\beakerForDynamo.png"
   inkscape:export-xdpi="96"
   inkscape:export-ydpi="96">
  <defs
     id="defs2" />
  <sodipodi:namedview
     id="base"
     pagecolor="#ffffff"
     bordercolor="#666666"
     borderopacity="1.0"
     inkscape:pageopacity="0.0"
     inkscape:pageshadow="2"
     inkscape:zoom="1.979899"
     inkscape:cx="207.75302"
     inkscape:cy="130.44007"
     inkscape:document-units="mm"
     inkscape:current-layer="g4546"
     showgrid="false"
     inkscape:window-width="1920"
     inkscape:window-height="1013"
     inkscape:window-x="-9"
     inkscape:window-y="-9"
     inkscape:window-maximized="1"
     units="in" />
  <metadata
     id="metadata5">
    <rdf:RDF>
      <cc:Work
         rdf:about="">
        <dc:format>image/svg+xml</dc:format>
        <dc:type
           rdf:resource="http://purl.org/dc/dcmitype/StillImage" />
        <dc:title></dc:title>
      </cc:Work>
    </rdf:RDF>
  </metadata>
  <g
     inkscape:label="Layer 1"
     inkscape:groupmode="layer"
     id="layer1"
     transform="translate(0,-220.8)">
    <g
       id="g4546"
       transform="translate(6.4144687,-78.309972)">
      <g
         id="g5931"
         transform="translate(8.0309155)">
        <path
           style="opacity:1;vector-effect:none;fill:#818285;fill-opacity:1;stroke:none;stroke-width:0.93746114;stroke-linecap:butt;stroke-linejoin:miter;stroke-miterlimit:4;stroke-dasharray:none;stroke-dashoffset:0;stroke-opacity:1;paint-order:markers fill stroke"
           d="m 47.192197,373.97838 c 0.642018,-0.2336 1.48829,-1.21951 1.611762,-1.87765 0.09164,-0.48851 -2.270704,-10.36241 -8.535996,-35.67784 -4.764491,-19.25134 -8.804442,-35.24193 -8.977672,-35.53468 -0.17323,-0.29274 -0.570349,-0.72388 -0.882486,-0.95808 -0.538015,-0.40367 -0.954989,-0.42927 -8.019267,-0.49236 -4.098461,-0.0365 -7.862079,-0.007 -8.363597,0.0674 -0.639906,0.0939 -1.125205,0.34721 -1.627235,0.84925 -0.695758,0.69575 -0.79316,1.03121 -3.550071,12.22653 -1.5590794,6.33113 -2.9054379,11.43999 -2.9919137,11.35299 -0.086476,-0.087 -0.4902469,-0.88948 -0.8972765,-1.78334 l -0.7400531,-1.6252 0.5668403,-0.82326 c 0.7853104,-1.14053 0.8092745,-3.22073 0.050133,-4.35277 -0.6982714,-1.04129 -1.755734,-1.68638 -3.0073912,-1.83462 -0.5772266,-0.0684 -1.04950328,-0.19991 -1.04950328,-0.29234 0,-0.34608 -0.6869215,-0.83719 -1.17098849,-0.83719 -0.78672743,0 -1.23480553,0.58878 -1.09653243,1.44086 0.088649,0.5463 -0.00862,0.92239 -0.3896516,1.50653 -1.1142054,1.70816 -0.8729424,3.61661 0.6412888,5.07278 0.77501791,0.74529 1.10918894,0.911 2.08222455,1.03259 l 1.15905115,0.14482 1.5153379,3.19693 1.5153362,3.19694 -5.32163718,21.51373 c -2.92689922,11.83256 -5.31819202,21.85738 -5.31398032,22.27739 0.00895,0.89287 0.6686941,1.80135 1.5497786,2.1341 0.6231229,0.23534 50.6019493,0.30999 51.2434913,0.0766 z m -50.3240563,-2.35904 c -0.056734,-0.0918 0.5829729,-2.91812 1.4215675,-6.28075 l 1.5247124,-6.11388 3.9417689,-0.003 c 2.7021856,-0.002 4.1040533,-0.0859 4.4578256,-0.26614 0.379927,-0.19361 0.6370604,-0.65613 0.9747561,-1.75335 1.5774778,-5.12536 5.4698718,-8.47879 10.7861168,-9.29262 6.029993,-0.92308 12.216145,3.13898 14.023725,9.20849 0.232372,0.78027 0.579854,1.54953 0.772185,1.70947 0.25855,0.21505 1.433929,0.31857 4.50968,0.39729 l 4.159988,0.10641 1.443974,5.74849 c 0.794185,3.16167 1.446708,5.96406 1.450053,6.22753 l 0.0061,0.47904 h -24.68467 c -13.5765513,0 -24.7310587,-0.0751 -24.7877861,-0.1669 z M 36.133989,355.76499 c -0.827642,-2.80114 -3.681485,-6.40031 -6.337254,-7.99239 -1.813649,-1.08722 -3.795969,-1.85208 -5.651715,-2.18061 -1.301746,-0.23047 -1.437122,-0.30231 -1.437122,-0.7626 0,-0.46686 0.08525,-0.50815 1.049325,-0.50815 1.212423,0 1.718465,-0.37298 1.718465,-1.26658 0,-0.7989 -0.339743,-1.03533 -1.602207,-1.11501 l -1.05913,-0.0669 -0.05959,-2.71456 -0.05959,-2.71457 h 1.000904 c 1.175187,0 1.779609,-0.43622 1.779609,-1.28436 0,-0.78078 -0.346334,-1.01794 -1.602208,-1.09721 l -1.05913,-0.0669 -0.05959,-2.71456 -0.05959,-2.71456 h 0.917069 c 1.176804,0 1.863444,-0.47073 1.863444,-1.27745 0,-0.8054 -0.686234,-1.27744 -1.857085,-1.27744 h -0.910706 v -2.66133 -2.66136 H 23.6186 c 1.170851,0 1.857085,-0.47203 1.857085,-1.27742 0,-0.80674 -0.68664,-1.27746 -1.863444,-1.27746 h -0.917069 l 0.05959,-2.71455 0.05959,-2.71458 1.05913,-0.0669 c 1.24147,-0.0784 1.602208,-0.31706 1.602208,-1.06021 0,-0.88986 -0.567,-1.32137 -1.736254,-1.32137 h -1.031541 v -1.37899 c 0,-1.215 -0.05989,-1.41821 -0.503531,-1.7089 -0.371638,-0.24353 -0.64287,-0.27696 -1.035498,-0.12768 -0.664256,0.25254 -0.802949,0.60872 -0.802949,2.062 v 1.15357 h -0.958082 c -0.97158,0 -1.80971,0.52037 -1.80971,1.12362 0,0.69913 0.651787,1.19568 1.654048,1.26008 l 1.00729,0.0645 0.05959,2.71457 0.05959,2.71456 h -0.923747 c -0.508062,0 -1.0761,0.11977 -1.262307,0.26615 -1.082755,0.85114 -0.258643,2.28875 1.31203,2.28875 h 0.861304 v 2.66133 2.66134 h -0.861304 c -1.570673,0 -2.394785,1.43761 -1.31203,2.28875 0.186207,0.14636 0.754245,0.26612 1.262307,0.26612 h 0.923747 l -0.05959,2.71457 -0.05959,2.71457 -1.00729,0.0647 c -1.002261,0.0645 -1.654048,0.56095 -1.654048,1.26009 0,0.60324 0.83813,1.12361 1.80971,1.12361 h 0.958082 v 2.7678 2.76778 H 19.31345 c -0.846226,0 -1.117406,0.0927 -1.383894,0.47319 -0.43803,0.62539 -0.41807,0.93052 0.09437,1.44298 0.299649,0.29964 0.709689,0.42581 1.383896,0.42581 0.875299,0 0.958082,0.0451 0.958082,0.52262 0,0.43819 -0.128991,0.54425 -0.7984,0.65647 -0.439123,0.0737 -1.363591,0.27122 -2.054374,0.43918 -0.690783,0.16794 -1.280848,0.27971 -1.311254,0.2484 -0.03041,-0.0312 -1.981807,-4.18703 -4.336447,-9.23493 l -4.2811539,-9.17783 3.1640239,-12.80695 c 1.740212,-7.04383 3.224143,-12.86708 3.297626,-12.94057 0.222327,-0.22233 14.860157,-0.13599 15.085124,0.089 0.164878,0.16488 13.573099,53.8458 13.586258,54.39371 0.0021,0.088 -1.418122,0.15969 -3.156069,0.15969 H 36.401337 Z M 0.56305907,356.4037 c -0.006564,-0.68852 6.05423743,-24.6384 6.19789983,-24.4919 0.178937,0.18252 7.2177521,15.19011 7.2177521,15.38913 0,0.0672 -0.282845,0.28918 -0.62854,0.49339 -1.038456,0.61343 -2.910738,2.31321 -3.7961613,3.44639 -1.1266917,1.44197 -2.3244257,3.65836 -2.5024471,4.63072 l -0.1461692,0.79841 H 3.7354833 c -2.3926487,0 -3.17052783,-0.0653 -3.17242423,-0.26614 z M 0.29943942,318.51741 c -0.84270715,-0.97461 -0.18894802,-2.52229 1.08069428,-2.55839 1.7683825,-0.0503 2.2288343,2.37252 0.5767268,3.03462 -0.5761353,0.23089 -1.20131372,0.0511 -1.65742108,-0.47623 z"
           id="path4528"
           inkscape:connector-curvature="0" />
        <g
           transform="matrix(0.14392851,0.59436233,-0.59436233,0.14392851,136.28886,229.40177)"
           id="g4565">
          <g
             aria-label="sixtysecond"
             transform="matrix(0.26458333,0,0,0.26458333,-4.8108515,84.189902)"
             style="font-style:normal;font-variant:normal;font-weight:normal;font-stretch:normal;font-size:40px;line-height:1.25;font-family:'Gotham Book';-inkscape-font-specification:'Gotham Book, Normal';font-variant-ligatures:normal;font-variant-caps:normal;font-variant-numeric:normal;font-feature-settings:normal;text-align:start;letter-spacing:0px;word-spacing:0px;writing-mode:lr-tb;text-anchor:start;fill:#818285;fill-opacity:1;stroke:none"
             id="flowRoot4497">
            <path
               d="m 322.41672,406.14454 q -2.24,0 -4.52,-0.8 -2.28,-0.84 -4.04,-2.24 l 1.56,-2.2 q 1.68,1.28 3.48,1.96 1.84,0.68 3.68,0.68 1.88,0 3.08,-0.88 1.2,-0.88 1.2,-2.4 v -0.08 q 0,-0.76 -0.44,-1.32 -0.4,-0.56 -1.12,-0.96 -0.72,-0.44 -1.68,-0.76 -0.92,-0.32 -1.92,-0.6 -1.2,-0.36 -2.44,-0.76 -1.2,-0.44 -2.2,-1.08 -0.96,-0.64 -1.6,-1.6 -0.6,-0.96 -0.6,-2.4 v -0.08 q 0,-1.32 0.52,-2.4 0.52,-1.12 1.44,-1.88 0.96,-0.8 2.24,-1.2 1.32,-0.44 2.84,-0.44 1.92,0 3.88,0.64 1.96,0.6 3.56,1.64 l -1.4,2.32 q -1.44,-0.92 -3.04,-1.44 -1.56,-0.56 -3.08,-0.56 -1.84,0 -2.92,0.88 -1.08,0.84 -1.08,2.12 v 0.08 q 0,0.72 0.44,1.28 0.44,0.52 1.16,0.92 0.76,0.4 1.72,0.72 0.96,0.32 2,0.64 1.2,0.36 2.36,0.8 1.2,0.44 2.16,1.12 0.96,0.68 1.52,1.64 0.6,0.96 0.6,2.36 v 0.08 q 0,1.48 -0.6,2.64 -0.56,1.12 -1.56,1.92 -0.96,0.8 -2.32,1.24 -1.32,0.4 -2.88,0.4 z"
               id="path4548"
               inkscape:connector-curvature="0" />
            <path
               d="m 335.77859,385.06454 h 3.08 v 20.68 h -3.08 z m -0.2,-7.92 h 3.52 v 3.4 h -3.52 z"
               id="path4550"
               inkscape:connector-curvature="0" />
            <path
               d="m 352.28547,395.22454 -7.8,-10.16 h 3.52 l 6.12,8 6.12,-8 h 3.44 l -7.84,10.08 8.16,10.6 h -3.56 l -6.4,-8.44 -6.44,8.44 h -3.44 z"
               id="path4552"
               inkscape:connector-curvature="0" />
            <path
               d="m 375.93422,406.10454 q -1.24,0 -2.32,-0.32 -1.08,-0.32 -1.88,-1 -0.76,-0.72 -1.2,-1.84 -0.44,-1.12 -0.44,-2.68 v -12.48 h -2.88 v -2.72 h 2.88 v -6.24 h 3.08 v 6.24 h 6.56 v 2.72 h -6.56 v 12.08 q 0,1.92 0.96,2.68 0.96,0.76 2.52,0.76 0.8,0 1.48,-0.16 0.72,-0.16 1.52,-0.56 v 2.64 q -0.8,0.44 -1.72,0.64 -0.88,0.24 -2,0.24 z"
               id="path4554"
               inkscape:connector-curvature="0" />
            <path
               d="m 388.38609,412.26454 q -1.28,0 -2.32,-0.28 -1.04,-0.24 -2.08,-0.76 l 1.04,-2.44 q 0.76,0.4 1.48,0.56 0.76,0.2 1.76,0.2 1.4,0 2.36,-0.84 0.96,-0.84 1.88,-3.04 l -9.4,-20.6 h 3.4 l 7.52,17.24 6.64,-17.24 h 3.28 l -8.68,21.36 q -1.32,3.2 -2.96,4.52 -1.6,1.32 -3.92,1.32 z"
               id="path4556"
               inkscape:connector-curvature="0" />
            <path
               d="m 415.69797,406.14454 q -2.24,0 -4.52,-0.8 -2.28,-0.84 -4.04,-2.24 l 1.56,-2.2 q 1.68,1.28 3.48,1.96 1.84,0.68 3.68,0.68 1.88,0 3.08,-0.88 1.2,-0.88 1.2,-2.4 v -0.08 q 0,-0.76 -0.44,-1.32 -0.4,-0.56 -1.12,-0.96 -0.72,-0.44 -1.68,-0.76 -0.92,-0.32 -1.92,-0.6 -1.2,-0.36 -2.44,-0.76 -1.2,-0.44 -2.2,-1.08 -0.96,-0.64 -1.6,-1.6 -0.6,-0.96 -0.6,-2.4 v -0.08 q 0,-1.32 0.52,-2.4 0.52,-1.12 1.44,-1.88 0.96,-0.8 2.24,-1.2 1.32,-0.44 2.84,-0.44 1.92,0 3.88,0.64 1.96,0.6 3.56,1.64 l -1.4,2.32 q -1.44,-0.92 -3.04,-1.44 -1.56,-0.56 -3.08,-0.56 -1.84,0 -2.92,0.88 -1.08,0.84 -1.08,2.12 v 0.08 q 0,0.72 0.44,1.28 0.44,0.52 1.16,0.92 0.76,0.4 1.72,0.72 0.96,0.32 2,0.64 1.2,0.36 2.36,0.8 1.2,0.44 2.16,1.12 0.96,0.68 1.52,1.64 0.6,0.96 0.6,2.36 v 0.08 q 0,1.48 -0.6,2.64 -0.56,1.12 -1.56,1.92 -0.96,0.8 -2.32,1.24 -1.32,0.4 -2.88,0.4 z"
               id="path4558"
               inkscape:connector-curvature="0" />
            <path
               d="m 443.93984,394.18454 q -0.12,-1.4 -0.6,-2.64 -0.48,-1.28 -1.32,-2.24 -0.8,-0.96 -2,-1.52 -1.16,-0.56 -2.68,-0.56 -1.32,0 -2.48,0.52 -1.16,0.52 -2.04,1.48 -0.88,0.92 -1.48,2.2 -0.56,1.28 -0.72,2.76 z m -13.32,2.48 q 0.16,1.64 0.8,2.92 0.64,1.28 1.64,2.16 1,0.88 2.24,1.36 1.24,0.44 2.6,0.44 2.16,0 3.68,-0.8 1.56,-0.8 2.84,-2.12 l 1.92,1.72 q -1.56,1.76 -3.56,2.84 -2,1.04 -4.96,1.04 -2.12,0 -4,-0.76 -1.88,-0.8 -3.28,-2.2 -1.4,-1.44 -2.24,-3.44 -0.8,-2 -0.8,-4.4 0,-2.24 0.72,-4.2 0.76,-2 2.08,-3.44 1.32,-1.48 3.12,-2.32 1.84,-0.84 4,-0.84 2.28,0 4.08,0.88 1.8,0.84 3.04,2.32 1.24,1.48 1.88,3.48 0.64,2 0.64,4.28 0,0.2 0,0.48 0,0.24 -0.04,0.6 z"
               id="path4560"
               inkscape:connector-curvature="0" />
            <path
               d="m 461.77172,406.22454 q -2.28,0 -4.24,-0.84 -1.92,-0.88 -3.36,-2.32 -1.4,-1.48 -2.2,-3.44 -0.8,-1.96 -0.8,-4.12 v -0.08 q 0,-2.2 0.8,-4.16 0.8,-1.96 2.2,-3.44 1.44,-1.48 3.36,-2.32 1.96,-0.88 4.24,-0.88 1.48,0 2.68,0.28 1.2,0.28 2.2,0.8 1,0.48 1.84,1.16 0.84,0.68 1.56,1.44 l -2.04,2.16 q -1.24,-1.28 -2.72,-2.2 -1.44,-0.92 -3.56,-0.92 -1.56,0 -2.92,0.64 -1.36,0.6 -2.36,1.68 -1,1.08 -1.56,2.56 -0.56,1.44 -0.56,3.12 v 0.08 q 0,1.68 0.56,3.16 0.6,1.44 1.6,2.56 1.04,1.08 2.4,1.72 1.4,0.6 3.04,0.6 2,0 3.52,-0.88 1.56,-0.88 2.8,-2.2 l 1.96,1.84 q -1.56,1.76 -3.56,2.88 -1.96,1.12 -4.88,1.12 z"
               id="path4562"
               inkscape:connector-curvature="0" />
            <path
               d="m 484.78422,403.46454 q 1.68,0 3.08,-0.64 1.4,-0.64 2.4,-1.72 1,-1.08 1.56,-2.52 0.56,-1.44 0.56,-3.08 v -0.08 q 0,-1.68 -0.6,-3.12 -0.56,-1.48 -1.6,-2.56 -1.04,-1.12 -2.44,-1.76 -1.4,-0.64 -3.04,-0.64 -1.68,0 -3.08,0.64 -1.4,0.64 -2.4,1.72 -0.96,1.08 -1.52,2.56 -0.56,1.44 -0.56,3.08 v 0.08 q 0,1.68 0.56,3.16 0.6,1.44 1.6,2.52 1.04,1.08 2.44,1.72 1.4,0.64 3.04,0.64 z m -0.08,2.76 q -2.32,0 -4.28,-0.84 -1.96,-0.88 -3.4,-2.32 -1.44,-1.48 -2.24,-3.4 -0.8,-1.96 -0.8,-4.16 v -0.08 q 0,-2.2 0.8,-4.16 0.8,-1.96 2.24,-3.44 1.44,-1.48 3.4,-2.32 2,-0.88 4.36,-0.88 2.32,0 4.28,0.88 2,0.84 3.44,2.32 1.44,1.44 2.24,3.4 0.8,1.92 0.8,4.12 v 0.08 q 0,2.2 -0.84,4.16 -0.8,1.96 -2.24,3.44 -1.44,1.48 -3.44,2.36 -2,0.84 -4.32,0.84 z"
               id="path4564"
               inkscape:connector-curvature="0" />
            <path
               d="m 501.12359,385.06454 h 3.08 v 3.6 q 1.04,-1.68 2.72,-2.84 1.68,-1.2 4.36,-1.2 1.88,0 3.32,0.6 1.48,0.6 2.48,1.72 1.04,1.08 1.56,2.6 0.56,1.52 0.56,3.36 v 12.84 h -3.08 v -12.08 q 0,-2.88 -1.48,-4.56 -1.48,-1.68 -4.24,-1.68 -1.32,0 -2.48,0.48 -1.12,0.44 -1.96,1.32 -0.84,0.84 -1.32,2.04 -0.44,1.2 -0.44,2.64 v 11.84 h -3.08 z"
               id="path4566"
               inkscape:connector-curvature="0" />
            <path
               d="m 534.97297,403.42454 q 1.44,0 2.76,-0.56 1.36,-0.6 2.4,-1.64 1.08,-1.08 1.68,-2.52 0.64,-1.48 0.64,-3.28 v -0.08 q 0,-1.8 -0.64,-3.24 -0.6,-1.48 -1.68,-2.52 -1.04,-1.04 -2.4,-1.6 -1.32,-0.6 -2.76,-0.6 -1.52,0 -2.84,0.56 -1.32,0.52 -2.32,1.56 -0.96,1 -1.56,2.48 -0.56,1.48 -0.56,3.36 v 0.08 q 0,1.84 0.56,3.32 0.6,1.48 1.6,2.52 1,1.04 2.32,1.6 1.32,0.56 2.8,0.56 z m -0.56,2.76 q -1.88,0 -3.64,-0.72 -1.76,-0.72 -3.16,-2.08 -1.4,-1.4 -2.24,-3.36 -0.84,-2 -0.84,-4.56 v -0.08 q 0,-2.52 0.84,-4.52 0.84,-2 2.24,-3.36 1.4,-1.4 3.16,-2.12 1.76,-0.76 3.64,-0.76 1.44,0 2.64,0.36 1.2,0.36 2.16,0.96 0.96,0.6 1.72,1.4 0.8,0.8 1.4,1.68 v -12.48 h 3.08 v 29.2 h -3.08 v -4.16 q -0.64,0.92 -1.44,1.76 -0.76,0.84 -1.72,1.48 -0.96,0.64 -2.16,1 -1.16,0.36 -2.6,0.36 z"
               id="path4568"
               inkscape:connector-curvature="0" />
          </g>
          <g
             aria-label="revit"
             transform="matrix(0.26458333,0,0,0.26458333,58.458103,84.403947)"
             style="font-style:normal;font-variant:normal;font-weight:normal;font-stretch:normal;font-size:40px;line-height:1.25;font-family:'Gotham Bold';-inkscape-font-specification:'Gotham Bold, Normal';font-variant-ligatures:normal;font-variant-caps:normal;font-variant-numeric:normal;font-feature-settings:normal;text-align:start;letter-spacing:0px;word-spacing:0px;writing-mode:lr-tb;text-anchor:start;fill:#818285;fill-opacity:1;stroke:none"
             id="flowRoot4497-5">
            <path
               d="m 314.85672,404.93555 h 6.08 v -7.92 c 0,-5.12 2.48,-7.56 6.52,-7.56 h 0.32 v -6.36 c -3.6,-0.16 -5.6,1.76 -6.84,4.72 v -4.32 h -6.08 z"
               id="path4571"
               inkscape:connector-curvature="0" />
            <path
               d="m 341.11047,405.41555 c 3.88,0 6.76,-1.52 8.76,-4 l -3.48,-3.08 c -1.68,1.56 -3.16,2.2 -5.2,2.2 -2.72,0 -4.64,-1.44 -5.24,-4.2 h 14.92 c 0.04,-0.56 0.08,-1.12 0.08,-1.6 0,-6.08 -3.28,-11.64 -10.44,-11.64 -6.24,0 -10.6,5.04 -10.6,11.16 v 0.08 c 0,6.56 4.76,11.08 11.2,11.08 z m -5.24,-12.88 c 0.48,-2.76 2.12,-4.56 4.64,-4.56 2.56,0 4.16,1.84 4.52,4.56 z"
               id="path4573"
               inkscape:connector-curvature="0" />
            <path
               d="m 360.98609,405.09555 h 5.52 l 8.44,-21.6 h -6.32 l -4.84,14.36 -4.8,-14.36 h -6.44 z"
               id="path4575"
               inkscape:connector-curvature="0" />
            <path
               d="m 378.57047,381.13555 h 6.4 v -5.4 h -6.4 z m 0.16,23.8 h 6.08 v -21.44 h -6.08 z"
               id="path4577"
               inkscape:connector-curvature="0" />
            <path
               d="m 397.79984,405.29555 c 2.04,0 3.52,-0.48 4.8,-1.24 v -4.88 c -0.88,0.48 -1.88,0.76 -3,0.76 -1.36,0 -1.96,-0.68 -1.96,-2.08 v -9.16 h 5.04 v -5.2 h -5.04 v -5.48 h -6.08 v 5.48 h -2.56 v 5.2 h 2.56 v 10.16 c 0,4.96 2.52,6.44 6.24,6.44 z"
               id="path4579"
               inkscape:connector-curvature="0" />
          </g>
          <g
             aria-label=".com"
             transform="matrix(0.26458333,0,0,0.26458333,83.068388,84.189902)"
             style="font-style:normal;font-variant:normal;font-weight:normal;font-stretch:normal;font-size:40px;line-height:1.25;font-family:'Gotham Book';-inkscape-font-specification:'Gotham Book, Normal';font-variant-ligatures:normal;font-variant-caps:normal;font-variant-numeric:normal;font-feature-settings:normal;text-align:start;letter-spacing:0px;word-spacing:0px;writing-mode:lr-tb;text-anchor:start;fill:#818285;fill-opacity:1;stroke:none"
             id="flowRoot4497-57">
            <path
               d="m 315.21672,401.54454 h 3.68 v 4.2 h -3.68 z"
               id="path4582"
               inkscape:connector-curvature="0" />
            <path
               d="m 334.66234,406.22454 q -2.28,0 -4.24,-0.84 -1.92,-0.88 -3.36,-2.32 -1.4,-1.48 -2.2,-3.44 -0.8,-1.96 -0.8,-4.12 v -0.08 q 0,-2.2 0.8,-4.16 0.8,-1.96 2.2,-3.44 1.44,-1.48 3.36,-2.32 1.96,-0.88 4.24,-0.88 1.48,0 2.68,0.28 1.2,0.28 2.2,0.8 1,0.48 1.84,1.16 0.84,0.68 1.56,1.44 l -2.04,2.16 q -1.24,-1.28 -2.72,-2.2 -1.44,-0.92 -3.56,-0.92 -1.56,0 -2.92,0.64 -1.36,0.6 -2.36,1.68 -1,1.08 -1.56,2.56 -0.56,1.44 -0.56,3.12 v 0.08 q 0,1.68 0.56,3.16 0.6,1.44 1.6,2.56 1.04,1.08 2.4,1.72 1.4,0.6 3.04,0.6 2,0 3.52,-0.88 1.56,-0.88 2.8,-2.2 l 1.96,1.84 q -1.56,1.76 -3.56,2.88 -1.96,1.12 -4.88,1.12 z"
               id="path4584"
               inkscape:connector-curvature="0" />
            <path
               d="m 357.67484,403.46454 q 1.68,0 3.08,-0.64 1.4,-0.64 2.4,-1.72 1,-1.08 1.56,-2.52 0.56,-1.44 0.56,-3.08 v -0.08 q 0,-1.68 -0.6,-3.12 -0.56,-1.48 -1.6,-2.56 -1.04,-1.12 -2.44,-1.76 -1.4,-0.64 -3.04,-0.64 -1.68,0 -3.08,0.64 -1.4,0.64 -2.4,1.72 -0.96,1.08 -1.52,2.56 -0.56,1.44 -0.56,3.08 v 0.08 q 0,1.68 0.56,3.16 0.6,1.44 1.6,2.52 1.04,1.08 2.44,1.72 1.4,0.64 3.04,0.64 z m -0.08,2.76 q -2.32,0 -4.28,-0.84 -1.96,-0.88 -3.4,-2.32 -1.44,-1.48 -2.24,-3.4 -0.8,-1.96 -0.8,-4.16 v -0.08 q 0,-2.2 0.8,-4.16 0.8,-1.96 2.24,-3.44 1.44,-1.48 3.4,-2.32 2,-0.88 4.36,-0.88 2.32,0 4.28,0.88 2,0.84 3.44,2.32 1.44,1.44 2.24,3.4 0.8,1.92 0.8,4.12 v 0.08 q 0,2.2 -0.84,4.16 -0.8,1.96 -2.24,3.44 -1.44,1.48 -3.44,2.36 -2,0.84 -4.32,0.84 z"
               id="path4586"
               inkscape:connector-curvature="0" />
            <path
               d="m 374.01422,385.06454 h 3.08 v 3.48 q 0.52,-0.76 1.12,-1.48 0.64,-0.72 1.44,-1.24 0.8,-0.56 1.8,-0.88 1,-0.32 2.32,-0.32 2.52,0 4.16,1.2 1.64,1.16 2.48,2.92 0.56,-0.84 1.24,-1.6 0.72,-0.76 1.6,-1.32 0.88,-0.56 1.96,-0.88 1.12,-0.32 2.48,-0.32 3.6,0 5.64,2.24 2.04,2.2 2.04,6.08 v 12.8 h -3.08 v -12.08 q 0,-3 -1.44,-4.6 -1.4,-1.64 -3.92,-1.64 -1.16,0 -2.2,0.44 -1.04,0.4 -1.84,1.24 -0.76,0.8 -1.24,2 -0.44,1.2 -0.44,2.72 v 11.92 h -3.04 v -12.16 q 0,-2.92 -1.44,-4.52 -1.4,-1.64 -3.88,-1.64 -1.24,0 -2.28,0.48 -1.04,0.48 -1.84,1.36 -0.76,0.88 -1.2,2.08 -0.44,1.16 -0.44,2.6 v 11.8 h -3.08 z"
               id="path4588"
               inkscape:connector-curvature="0" />
          </g>
        </g>
      </g>
    </g>
  </g>
</svg>
