<?xml version="1.0" encoding="UTF-8" standalone="no"?>
<!-- Created with Inkscape (http://www.inkscape.org/) -->

<svg
   xmlns:dc="http://purl.org/dc/elements/1.1/"
   xmlns:cc="http://creativecommons.org/ns#"
   xmlns:rdf="http://www.w3.org/1999/02/22-rdf-syntax-ns#"
   xmlns:svg="http://www.w3.org/2000/svg"
   xmlns="http://www.w3.org/2000/svg"
   xmlns:sodipodi="http://sodipodi.sourceforge.net/DTD/sodipodi-0.dtd"
   xmlns:inkscape="http://www.inkscape.org/namespaces/inkscape"
   width="4in"
   height="4in"
   viewBox="0 0 101.6 101.6"
   version="1.1"
   id="svg8"
   inkscape:version="0.92.3 (2405546, 2018-03-11)"
   sodipodi:docname="ProfileImage.svg"
   inkscape:export-filename="C:\Users\johnp\OneDrive\EvolveLAB Transfer\EvolveLAB\Development\EvolveLAB Dynamo Package\beakerForDynamo.png"
   inkscape:export-xdpi="96"
   inkscape:export-ydpi="96">
  <defs
     id="defs2" />
  <sodipodi:namedview
     id="base"
     pagecolor="#ffffff"
     bordercolor="#666666"
     borderopacity="1.0"
     inkscape:pageopacity="0.0"
     inkscape:pageshadow="2"
     inkscape:zoom="0.7"
     inkscape:cx="125.30595"
     inkscape:cy="133.58279"
     inkscape:document-units="mm"
     inkscape:current-layer="g4606"
     showgrid="false"
     inkscape:window-width="1923"
     inkscape:window-height="1018"
     inkscape:window-x="950"
     inkscape:window-y="0"
     inkscape:window-maximized="0"
     units="in" />
  <metadata
     id="metadata5">
    <rdf:RDF>
      <cc:Work
         rdf:about="">
        <dc:format>image/svg+xml</dc:format>
        <dc:type
           rdf:resource="http://purl.org/dc/dcmitype/StillImage" />
        <dc:title></dc:title>
      </cc:Work>
    </rdf:RDF>
  </metadata>
  <g
     inkscape:label="Layer 1"
     inkscape:groupmode="layer"
     id="layer1"
     transform="translate(0,-195.4)">
    <g
       id="g4546"
       transform="translate(6.4144687,-78.309972)">
      <g
         id="g4630"
         transform="translate(0,156.43603)">
        <g
           transform="translate(0,7.4942915)"
           id="g4606">
          <circle
             style="opacity:1;vector-effect:none;fill:none;fill-opacity:1;stroke:#000000;stroke-width:0.92607093;stroke-linecap:butt;stroke-linejoin:miter;stroke-miterlimit:4;stroke-dasharray:none;stroke-dashoffset:0;stroke-opacity:1"
             id="path874"
             cx="44.385532"
             cy="160.57965"
             r="50.336964"
             inkscape:export-xdpi="96"
             inkscape:export-ydpi="96" />
          <g
             id="g882"
             transform="matrix(0.91647053,0,0,0.91647053,143.46256,37.552024)">
            <path
               style="opacity:1;vector-effect:none;fill:#818285;fill-opacity:1;stroke:none;stroke-width:1.0915575;stroke-linecap:butt;stroke-linejoin:miter;stroke-miterlimit:4;stroke-dasharray:none;stroke-dashoffset:0;stroke-opacity:1;paint-order:markers fill stroke"
               d="m -78.311388,341.49399 c 0.747549,-0.272 1.73293,-1.41995 1.876697,-2.18629 0.106708,-0.5688 -2.643954,-12.06574 -9.939111,-41.54242 -5.54766,-22.4158 -10.251684,-41.03487 -10.453387,-41.37574 -0.201706,-0.34087 -0.664101,-0.84287 -1.027547,-1.11556 -0.626452,-0.47003 -1.111966,-0.49984 -9.337444,-0.5733 -4.77215,-0.0426 -9.15442,-0.007 -9.73837,0.0784 -0.7451,0.10938 -1.31017,0.40428 -1.89472,0.98884 -0.81012,0.81011 -0.92353,1.20072 -4.13362,14.23628 -1.81535,7.37182 -3.38302,13.32045 -3.48371,13.21916 -0.10069,-0.10128 -0.57083,-1.0357 -1.04477,-2.07648 l -0.8617,-1.89232 0.66002,-0.95858 c 0.9144,-1.32801 0.9423,-3.75013 0.0584,-5.06827 -0.81305,-1.21245 -2.04433,-1.96357 -3.50173,-2.13618 -0.67211,-0.0796 -1.22202,-0.23278 -1.22202,-0.34038 0,-0.40298 -0.79983,-0.97481 -1.36347,-0.97481 -0.91605,0 -1.43778,0.68556 -1.27678,1.6777 0.10322,0.63609 -0.01,1.074 -0.4537,1.75417 -1.29735,1.98894 -1.01643,4.21109 0.7467,5.90662 0.90242,0.8678 1.29152,1.06076 2.4245,1.20232 l 1.34957,0.16862 1.76442,3.72244 1.76442,3.72243 -6.19639,25.05009 c -3.40801,13.77754 -6.19237,25.45021 -6.18747,25.93926 0.0104,1.03963 0.77861,2.09745 1.80453,2.4849 0.72555,0.27401 58.919705,0.36093 59.666703,0.0891 z m -58.596132,-2.7468 c -0.0661,-0.10689 0.6788,-3.3978 1.65523,-7.31316 l 1.77534,-7.11885 4.58971,-0.004 c 3.14636,-0.003 4.77866,-0.1 5.19058,-0.30988 0.44238,-0.22545 0.74178,-0.76399 1.13498,-2.04156 1.83678,-5.96785 6.36899,-9.8725 12.5591,-10.8201 7.02118,-1.07482 14.224192,3.65494 16.328897,10.72214 0.270567,0.90852 0.675167,1.80423 0.899112,1.99047 0.301051,0.25038 1.669633,0.37093 5.250965,0.46258 l 4.843791,0.12395 1.681329,6.6934 c 0.92473,3.68138 1.684513,6.94441 1.688406,7.25119 l 0.0071,0.55778 h -28.74227 c -15.80822,0 -28.79626,-0.0875 -28.86231,-0.19433 z m 45.720217,-18.46044 c -0.963686,-3.26157 -4.286633,-7.45237 -7.378948,-9.30613 -2.111769,-1.26595 -4.419939,-2.15652 -6.580719,-2.53907 -1.51573,-0.26835 -1.67335,-0.35199 -1.67335,-0.88794 0,-0.54361 0.0993,-0.59169 1.2218,-0.59169 1.41172,0 2.00094,-0.43429 2.00094,-1.47477 0,-0.93022 -0.39559,-1.20552 -1.86557,-1.29829 l -1.23322,-0.0779 -0.0694,-3.16077 -0.0694,-3.16078 h 1.16542 c 1.36836,0 2.07214,-0.50792 2.07214,-1.49548 0,-0.90912 -0.40326,-1.18528 -1.86557,-1.27757 l -1.23323,-0.0779 -0.0694,-3.16077 -0.0694,-3.16077 h 1.06781 c 1.37024,0 2.16975,-0.5481 2.16975,-1.48743 0,-0.93779 -0.79903,-1.48742 -2.16234,-1.48742 h -1.06041 v -3.0988 -3.09881 h 1.06041 c 1.36331,0 2.16234,-0.54962 2.16234,-1.48741 0,-0.93934 -0.79951,-1.48743 -2.16975,-1.48743 h -1.06781 l 0.0694,-3.16076 0.0694,-3.16079 1.23323,-0.0779 c 1.44553,-0.0913 1.86557,-0.36918 1.86557,-1.23449 0,-1.03614 -0.6602,-1.53857 -2.02165,-1.53857 h -1.20111 v -1.60566 c 0,-1.41471 -0.0697,-1.65134 -0.5863,-1.98981 -0.43272,-0.28355 -0.74854,-0.32248 -1.2057,-0.14866 -0.77345,0.29406 -0.93494,0.70877 -0.93494,2.40094 v 1.34319 h -1.11557 c -1.13128,0 -2.10718,0.60592 -2.10718,1.30832 0,0.81405 0.75892,1.39222 1.92593,1.46721 l 1.17287,0.0752 0.0694,3.16077 0.0694,3.16078 h -1.07559 c -0.59158,0 -1.25299,0.13946 -1.4698,0.30989 -1.26074,0.99104 -0.30116,2.66496 1.52769,2.66496 h 1.00289 v 3.0988 3.0988 h -1.00289 c -1.82885,0 -2.78843,1.67392 -1.52769,2.66497 0.21681,0.17042 0.87822,0.30986 1.4698,0.30986 h 1.07559 l -0.0694,3.16079 -0.0694,3.16078 -1.17287,0.0753 c -1.16701,0.075 -1.92593,0.65316 -1.92593,1.46722 0,0.7024 0.9759,1.30831 2.10718,1.30831 h 1.11557 v 3.22275 3.22275 h -1.22546 c -0.98533,0 -1.30108,0.10795 -1.61138,0.55097 -0.51003,0.72817 -0.48679,1.08347 0.1099,1.68016 0.3489,0.3489 0.82634,0.49581 1.61137,0.49581 1.01918,0 1.11557,0.0525 1.11557,0.60853 0,0.51021 -0.15019,0.6337 -0.92964,0.76437 -0.5113,0.0858 -1.58773,0.31582 -2.39206,0.51138 -0.80433,0.19554 -1.49139,0.32569 -1.52679,0.28922 -0.0354,-0.0364 -2.30757,-4.87528 -5.04926,-10.75293 l -4.98488,-10.68662 3.68411,-14.91212 c 2.02626,-8.20166 3.75412,-14.98213 3.83968,-15.0677 0.25887,-0.25887 17.302812,-0.15833 17.564759,0.10362 0.19198,0.19198 15.804194,62.69677 15.819516,63.33474 0.0024,0.10231 -1.651227,0.18594 -3.674852,0.18594 h -3.679317 z m -41.417947,0.74371 c -0.008,-0.8017 7.04941,-28.68838 7.21669,-28.51778 0.20835,0.21251 8.40418,17.68699 8.40418,17.91872 0,0.0782 -0.32934,0.33672 -0.73186,0.5745 -1.20915,0.71426 -3.3892,2.69344 -4.42016,4.0129 -1.31189,1.67899 -2.70651,4.25969 -2.91379,5.3919 l -0.1702,0.92964 h -3.69096 c -2.78595,0 -3.69169,-0.0761 -3.6939,-0.30988 z m -0.30695,-44.11391 c -0.98123,-1.1348 -0.22001,-2.93689 1.25833,-2.97892 2.05907,-0.0586 2.5952,2.76251 0.67153,3.53345 -0.67084,0.26884 -1.39878,0.0596 -1.92986,-0.55453 z"
               id="path4528"
               inkscape:connector-curvature="0"
               transform="translate(-6.0416667e-8,-163.93033)" />
            <path
               style="font-style:normal;font-variant:normal;font-weight:normal;font-stretch:normal;font-size:medium;line-height:1.25;font-family:'Gotham Bold';-inkscape-font-specification:'Gotham Bold, Normal';font-variant-ligatures:normal;font-variant-caps:normal;font-variant-numeric:normal;font-feature-settings:normal;text-align:start;letter-spacing:0px;word-spacing:0px;writing-mode:lr-tb;text-anchor:start;opacity:1;vector-effect:none;fill:#ffffff;fill-opacity:1;stroke:none;stroke-width:2.28571415;stroke-linecap:butt;stroke-linejoin:miter;stroke-miterlimit:4;stroke-dasharray:none;stroke-dashoffset:0;stroke-opacity:1"
               d="m -131.91097,157.24018 c -0.60203,-0.0744 -0.61682,-0.0973 -0.49859,-0.77295 0.15866,-0.9066 5.75677,-23.15184 6.47688,-25.73719 l 0.55271,-1.98437 1.2691,2.64583 c 1.60342,3.34281 6.42031,13.65942 6.78328,14.52815 l 0.27306,0.65352 -1.07038,0.70333 c -0.58871,0.38683 -1.83578,1.47844 -2.77127,2.42581 -2.31742,2.34684 -3.55015,4.44764 -4.365,7.43882 -0.0485,0.17794 -0.80026,0.22877 -3.04685,0.20599 -1.64037,-0.0166 -3.26169,-0.0648 -3.60294,-0.10694 z"
               id="path862"
               inkscape:connector-curvature="0" />
            <path
               style="font-style:normal;font-variant:normal;font-weight:normal;font-stretch:normal;font-size:medium;line-height:1.25;font-family:'Gotham Bold';-inkscape-font-specification:'Gotham Bold, Normal';font-variant-ligatures:normal;font-variant-caps:normal;font-variant-numeric:normal;font-feature-settings:normal;text-align:start;letter-spacing:0px;word-spacing:0px;writing-mode:lr-tb;text-anchor:start;opacity:1;vector-effect:none;fill:#ffffff;fill-opacity:1;stroke:none;stroke-width:2.28571415;stroke-linecap:butt;stroke-linejoin:miter;stroke-miterlimit:4;stroke-dasharray:none;stroke-dashoffset:0;stroke-opacity:1"
               d="m -90.845946,157.14113 c -1.244227,-3.60628 -2.537216,-5.6275 -5.244457,-8.19822 -2.464707,-2.34042 -5.522857,-3.83276 -9.434107,-4.60373 -1.00361,-0.19783 -1.44401,-0.54817 -1.1952,-0.95077 0.054,-0.0873 0.58576,-0.21618 1.18179,-0.28643 1.55659,-0.18347 1.93415,-0.47362 1.93415,-1.48634 0,-1.05914 -0.26802,-1.26674 -1.79355,-1.38919 l -1.23026,-0.0987 v -1.93078 c 0,-1.06193 -0.0546,-2.45352 -0.12141,-3.09243 l -0.12142,-1.16165 1.01911,-7.9e-4 c 0.68231,-2.7e-4 1.2221,-0.12447 1.63332,-0.3752 0.52218,-0.31838 0.61421,-0.48379 0.61421,-1.10393 0,-0.97746 -0.40388,-1.29739 -1.84263,-1.45962 l -1.18118,-0.13313 v -1.93224 c 0,-1.06273 -0.0546,-2.45499 -0.12141,-3.09389 l -0.12142,-1.16165 h 1.13536 c 1.50163,0 2.13128,-0.45155 2.13128,-1.5284 0,-0.63772 -0.0885,-0.79895 -0.61421,-1.11951 -0.40576,-0.2474 -0.95094,-0.37473 -1.6064,-0.3752 l -0.99219,-7.9e-4 v -3.02381 -3.02381 h 0.85652 c 1.16623,0 2.12454,-0.4253 2.27072,-1.00776 0.31349,-1.24901 -0.37157,-1.97351 -2.02769,-2.14443 l -1.05157,-0.10854 0.0949,-2.9526 c 0.0522,-1.62392 0.12088,-2.98247 0.15264,-3.01898 0.0318,-0.0365 0.56628,-0.12636 1.18782,-0.19964 1.40191,-0.1653 1.72946,-0.42094 1.72946,-1.3498 0,-1.04159 -0.64552,-1.50248 -2.10436,-1.50248 h -1.10844 v -1.5771 c 0,-1.80109 -0.28488,-2.27357 -1.35256,-2.24322 -1.02283,0.0291 -1.37536,0.58503 -1.45283,2.29111 l -0.0675,1.48654 -1.1123,0.0804 c -1.20564,0.0872 -2.06242,0.64081 -2.06242,1.33262 0,0.57358 1.01837,1.46442 1.67405,1.46442 0.31307,0 0.78735,0.0829 1.05398,0.18432 l 0.48477,0.18431 v 2.93399 2.93399 l -0.70871,0.0107 c -1.15006,0.0173 -2.0003,0.39564 -2.20578,0.98152 -0.40609,1.15784 0.64879,2.21967 2.20578,2.22031 l 0.70871,2.7e-4 v 3.02381 3.02381 h -0.76534 c -0.88111,0 -1.78209,0.40794 -2.06388,0.93447 -0.62069,1.15978 0.18902,2.08934 1.81995,2.08934 h 1.01863 l -0.0519,3.0563 -0.0519,3.05631 -1.03943,0.21259 c -1.33449,0.27293 -1.85781,0.56827 -1.99821,1.12768 -0.24729,0.98527 0.8309,1.80754 2.37012,1.80754 h 0.76202 v 3.09558 3.09559 l -1.16244,0.0841 c -0.97553,0.0706 -1.23382,0.16707 -1.6064,0.60021 -0.24418,0.28388 -0.44396,0.67392 -0.44396,0.86678 0,0.61 1.00819,1.26991 2.16,1.41382 0.94327,0.11785 1.0528,0.17795 1.0528,0.57768 0,0.50491 0.0741,0.47534 -2.61601,1.04407 -1.075,0.22728 -2.01965,0.34028 -2.09924,0.25111 -0.0796,-0.0892 -1.59532,-3.26625 -3.3683,-7.06018 -1.77299,-3.79394 -3.98832,-8.53422 -4.92295,-10.53395 l -1.69934,-3.63573 3.7149,-14.87963 c 3.58235,-14.34873 3.73175,-14.8842 4.18737,-15.00785 0.58594,-0.15902 11.97399,-0.15849 14.9188,6.9e-4 l 2.162107,0.11688 0.438531,1.70089 c 0.795695,3.0862 13.797468,55.11846 14.568657,58.30283 l 0.75519,3.1183 -0.688385,0.13085 c -1.280912,0.24348 -6.455844,0.17738 -6.54589,-0.0836 z"
               id="path864"
               inkscape:connector-curvature="0" />
            <path
               style="font-style:normal;font-variant:normal;font-weight:normal;font-stretch:normal;font-size:medium;line-height:1.25;font-family:'Gotham Bold';-inkscape-font-specification:'Gotham Bold, Normal';font-variant-ligatures:normal;font-variant-caps:normal;font-variant-numeric:normal;font-feature-settings:normal;text-align:start;letter-spacing:0px;word-spacing:0px;writing-mode:lr-tb;text-anchor:start;opacity:1;vector-effect:none;fill:#ffffff;fill-opacity:1;stroke:none;stroke-width:2.28571415;stroke-linecap:butt;stroke-linejoin:miter;stroke-miterlimit:4;stroke-dasharray:none;stroke-dashoffset:0;stroke-opacity:1"
               d="m -133.51364,174.81179 -3.35704,-0.0563 0.0955,-0.42085 c 0.5495,-2.4212 1.24526,-5.34803 2.19757,-9.24435 l 1.14036,-4.66577 4.80096,-0.0589 c 5.67043,-0.0696 5.20097,0.13509 6.29271,-2.74391 1.75385,-4.62505 4.47999,-7.57965 8.55379,-9.27063 5.75837,-2.39022 11.86578,-1.10044 16.358516,3.45464 1.622121,1.64463 2.762012,3.52751 3.653282,6.03452 0.434274,1.22155 0.803826,1.95042 1.080966,2.13201 0.393285,0.25769 5.121561,0.58338 8.853062,0.6098 l 1.144487,0.008 1.564005,6.40643 c 0.860205,3.52354 1.610791,6.75523 1.667973,7.18155 l 0.103965,0.77512 -25.396536,-0.0426 c -13.9681,-0.0234 -26.9072,-0.0679 -28.75358,-0.0989 z"
               id="path866"
               inkscape:connector-curvature="0" />
            <path
               style="font-style:normal;font-variant:normal;font-weight:normal;font-stretch:normal;font-size:medium;line-height:1.25;font-family:'Gotham Bold';-inkscape-font-specification:'Gotham Bold, Normal';font-variant-ligatures:normal;font-variant-caps:normal;font-variant-numeric:normal;font-feature-settings:normal;text-align:start;letter-spacing:0px;word-spacing:0px;writing-mode:lr-tb;text-anchor:start;opacity:1;vector-effect:none;fill:#ffffff;fill-opacity:1;stroke:none;stroke-width:2.28571415;stroke-linecap:butt;stroke-linejoin:miter;stroke-miterlimit:4;stroke-dasharray:none;stroke-dashoffset:0;stroke-opacity:1"
               d="m -132.72247,112.9797 c -0.70426,-0.70426 -0.72587,-1.4803 -0.0632,-2.2679 0.69259,-0.82309 1.73065,-0.82309 2.42325,0 0.66271,0.7876 0.6411,1.56364 -0.0632,2.2679 -0.37703,0.37703 -0.74167,0.55242 -1.14847,0.55242 -0.40679,0 -0.77143,-0.17539 -1.14846,-0.55242 z"
               id="path868"
               inkscape:connector-curvature="0" />
          </g>
        </g>
      </g>
    </g>
  </g>
</svg>
