<?xml version="1.0" encoding="UTF-8" standalone="no"?>
<!-- Created with Inkscape (http://www.inkscape.org/) -->

<svg
   xmlns:dc="http://purl.org/dc/elements/1.1/"
   xmlns:cc="http://creativecommons.org/ns#"
   xmlns:rdf="http://www.w3.org/1999/02/22-rdf-syntax-ns#"
   xmlns:svg="http://www.w3.org/2000/svg"
   xmlns="http://www.w3.org/2000/svg"
   xmlns:sodipodi="http://sodipodi.sourceforge.net/DTD/sodipodi-0.dtd"
   xmlns:inkscape="http://www.inkscape.org/namespaces/inkscape"
   width="7in"
   height="4in"
   viewBox="0 0 177.8 101.6"
   version="1.1"
   id="svg8"
   inkscape:version="0.92.3 (2405546, 2018-03-11)"
   sodipodi:docname="RhythmLogo.svg"
   inkscape:export-filename="C:\Users\johnp\OneDrive\EvolveLAB Transfer\EvolveLAB\Development\EvolveLAB Dynamo Package\beakerForDynamo.png"
   inkscape:export-xdpi="96"
   inkscape:export-ydpi="96">
  <defs
     id="defs2" />
  <sodipodi:namedview
     id="base"
     pagecolor="#ffffff"
     bordercolor="#666666"
     borderopacity="1.0"
     inkscape:pageopacity="0.0"
     inkscape:pageshadow="2"
     inkscape:zoom="1.4"
     inkscape:cx="78.527509"
     inkscape:cy="123.81742"
     inkscape:document-units="mm"
     inkscape:current-layer="flowRoot4530"
     showgrid="false"
     inkscape:window-width="1920"
     inkscape:window-height="1027"
     inkscape:window-x="-8"
     inkscape:window-y="-8"
     inkscape:window-maximized="1"
     units="in" />
  <metadata
     id="metadata5">
    <rdf:RDF>
      <cc:Work
         rdf:about="">
        <dc:format>image/svg+xml</dc:format>
        <dc:type
           rdf:resource="http://purl.org/dc/dcmitype/StillImage" />
        <dc:title />
      </cc:Work>
    </rdf:RDF>
  </metadata>
  <g
     inkscape:label="Layer 1"
     inkscape:groupmode="layer"
     id="layer1"
     transform="translate(0,-195.4)">
    <g
       id="g4546"
       transform="translate(6.4144687,-78.309972)">
      <path
         inkscape:connector-curvature="0"
         id="path4528"
         d="m 57.004088,370.22018 c 0.747549,-0.272 1.73293,-1.41995 1.876697,-2.18629 0.106708,-0.5688 -2.643954,-12.06574 -9.939111,-41.54242 -5.54766,-22.4158 -10.251684,-41.03487 -10.453387,-41.37574 -0.201706,-0.34087 -0.664101,-0.84287 -1.027547,-1.11556 -0.626452,-0.47003 -1.111966,-0.49984 -9.337444,-0.5733 -4.77215,-0.0426 -9.154418,-0.007 -9.738374,0.0784 -0.745091,0.10938 -1.310162,0.40428 -1.894713,0.98884 -0.810123,0.81011 -0.923536,1.20072 -4.133619,14.23628 -1.815355,7.37182 -3.3830228,13.32045 -3.4837132,13.21916 -0.1006902,-0.10128 -0.5708317,-1.0357 -1.0447674,-2.07648 l -0.8617003,-1.89232 0.6600153,-0.95858 c 0.914397,-1.32801 0.9423,-3.75013 0.058374,-5.06827 -0.8130507,-1.21245 -2.044335,-1.96357 -3.5017349,-2.13618 -0.6721089,-0.0796 -1.2220167,-0.23278 -1.2220167,-0.34038 0,-0.40298 -0.7998351,-0.97481 -1.3634712,-0.97481 -0.91604676,0 -1.43777823,0.68556 -1.27677638,1.6777 0.10322066,0.63609 -0.0100352,1.074 -0.45370088,1.75417 -1.29735444,1.98894 -1.01643334,4.21109 0.74670136,5.90662 0.9024124,0.8678 1.2915132,1.06076 2.4244928,1.20232 l 1.3495716,0.16862 1.7644234,3.72244 1.7644215,3.72243 -6.1963879,25.05009 c -3.4080119,13.77754 -6.1923764,25.45021 -6.1874724,25.93926 0.010426,1.03963 0.7786115,2.09745 1.8045253,2.4849 0.7255496,0.27401 58.919707,0.36093 59.666705,0.0891 z m -58.5961364,-2.7468 c -0.06606,-0.10689 0.67879975,-3.3978 1.65523933,-7.31316 l 1.77533887,-7.11885 4.5897021,-0.004 c 3.1463607,-0.003 4.7786621,-0.1 5.1905861,-0.30988 0.442378,-0.22545 0.741778,-0.76399 1.134983,-2.04156 1.836778,-5.96785 6.368989,-9.8725 12.559099,-10.8201 7.021179,-1.07482 14.224188,3.65494 16.328893,10.72214 0.270567,0.90852 0.675167,1.80423 0.899112,1.99047 0.301051,0.25038 1.669633,0.37093 5.250965,0.46258 l 4.843791,0.12395 1.681329,6.6934 c 0.92473,3.68138 1.684513,6.94441 1.688406,7.25119 l 0.0071,0.55778 h -28.74227 c -15.808215,0 -28.7962582,-0.0875 -28.8623104,-0.19433 z M 44.128173,349.01294 c -0.963686,-3.26157 -4.286633,-7.45237 -7.378948,-9.30613 -2.11177,-1.26595 -4.419936,-2.15652 -6.580723,-2.53907 -1.515722,-0.26835 -1.67335,-0.35199 -1.67335,-0.88794 0,-0.54361 0.09926,-0.59169 1.221809,-0.59169 1.411717,0 2.000939,-0.43429 2.000939,-1.47477 0,-0.93022 -0.395589,-1.20552 -1.865571,-1.29829 l -1.233227,-0.0779 -0.06938,-3.16077 -0.06938,-3.16078 h 1.165429 c 1.368359,0 2.072133,-0.50792 2.072133,-1.49548 0,-0.90912 -0.403262,-1.18528 -1.865572,-1.27757 l -1.233226,-0.0779 -0.06938,-3.16077 -0.06938,-3.16077 h 1.067813 c 1.370242,0 2.169749,-0.5481 2.169749,-1.48743 0,-0.93779 -0.799034,-1.48742 -2.162345,-1.48742 h -1.060404 v -3.0988 -3.09881 h 1.060404 c 1.363311,0 2.162345,-0.54962 2.162345,-1.48741 0,-0.93934 -0.799507,-1.48743 -2.169749,-1.48743 h -1.067813 l 0.06938,-3.16076 0.06938,-3.16079 1.233226,-0.0779 c 1.445538,-0.0913 1.865572,-0.36918 1.865572,-1.23449 0,-1.03614 -0.660201,-1.53857 -2.021652,-1.53857 H 28.49515 v -1.60566 c 0,-1.41471 -0.06973,-1.65134 -0.5863,-1.98981 -0.432725,-0.28355 -0.748542,-0.32248 -1.205708,-0.14866 -0.773444,0.29406 -0.934934,0.70877 -0.934934,2.40094 v 1.34319 h -1.115569 c -1.131285,0 -2.107183,0.60592 -2.107183,1.30832 0,0.81405 0.758925,1.39222 1.925934,1.46721 l 1.172864,0.0752 0.06938,3.16077 0.06938,3.16078 h -1.075588 c -0.591577,0 -1.252986,0.13946 -1.469802,0.30989 -1.260734,0.99104 -0.301157,2.66496 1.527697,2.66496 h 1.002883 v 3.0988 3.0988 h -1.002883 c -1.828854,0 -2.788431,1.67392 -1.527697,2.66497 0.216816,0.17042 0.878225,0.30986 1.469802,0.30986 h 1.075588 l -0.06938,3.16079 -0.06938,3.16078 -1.172864,0.0753 c -1.167009,0.075 -1.925934,0.65316 -1.925934,1.46722 0,0.7024 0.975898,1.30831 2.107183,1.30831 h 1.115569 v 3.22275 3.22275 h -1.225464 c -0.985328,0 -1.301081,0.10795 -1.611374,0.55097 -0.510031,0.72817 -0.486791,1.08347 0.109895,1.68016 0.348903,0.3489 0.826344,0.49581 1.611374,0.49581 1.019177,0 1.115569,0.0525 1.115569,0.60853 0,0.51021 -0.150194,0.6337 -0.929639,0.76437 -0.511303,0.0858 -1.587732,0.31582 -2.392064,0.51138 -0.804331,0.19554 -1.491389,0.32569 -1.526793,0.28922 -0.03541,-0.0364 -2.307569,-4.87528 -5.049255,-10.75293 l -4.984884,-10.68662 3.684115,-14.91212 c 2.026261,-8.20166 3.754115,-14.98213 3.839678,-15.0677 0.258871,-0.25887 17.302812,-0.15833 17.564759,0.10362 0.19198,0.19198 15.804194,62.69677 15.819516,63.33474 0.0024,0.10231 -1.651227,0.18594 -3.674852,0.18594 h -3.679317 z m -41.4179463,0.74371 c -0.00764,-0.8017 7.0494101,-28.68838 7.2166873,-28.51778 0.20835,0.21251 8.40418,17.68699 8.40418,17.91872 0,0.0782 -0.329338,0.33672 -0.731858,0.5745 -1.209154,0.71426 -3.389195,2.69344 -4.42016,4.0129 -1.311893,1.67899 -2.706506,4.25969 -2.91379,5.3919 l -0.170196,0.92964 H 6.404122 c -2.7859432,0 -3.6916872,-0.0761 -3.6938953,-0.30988 z M 2.4032742,305.64274 c -0.9812282,-1.1348 -0.2200066,-2.93689 1.2583346,-2.97892 2.0590627,-0.0586 2.5952019,2.76251 0.6715272,3.53345 -0.6708383,0.26884 -1.3987812,0.0596 -1.9298618,-0.55453 z"
         style="opacity:1;vector-effect:none;fill:#818285;fill-opacity:1;stroke:none;stroke-width:1.0915575;stroke-linecap:butt;stroke-linejoin:miter;stroke-miterlimit:4;stroke-dasharray:none;stroke-dashoffset:0;stroke-opacity:1;paint-order:markers fill stroke" />
      <g
         id="g4630"
         transform="translate(0,156.43603)">
        <g
           transform="matrix(0.74392773,0,0,0.74392773,2.2223495,50.411301)"
           id="g4565">
          <g
             aria-label="sixtysecond"
             transform="matrix(0.26458333,0,0,0.26458333,-4.8108515,84.189902)"
             style="font-style:normal;font-variant:normal;font-weight:normal;font-stretch:normal;font-size:40px;line-height:1.25;font-family:'Gotham Book';-inkscape-font-specification:'Gotham Book, Normal';font-variant-ligatures:normal;font-variant-caps:normal;font-variant-numeric:normal;font-feature-settings:normal;text-align:start;letter-spacing:0px;word-spacing:0px;writing-mode:lr-tb;text-anchor:start;fill:#818285;fill-opacity:1;stroke:none"
             id="flowRoot4497">
            <path
               d="m 322.41672,406.14454 q -2.24,0 -4.52,-0.8 -2.28,-0.84 -4.04,-2.24 l 1.56,-2.2 q 1.68,1.28 3.48,1.96 1.84,0.68 3.68,0.68 1.88,0 3.08,-0.88 1.2,-0.88 1.2,-2.4 v -0.08 q 0,-0.76 -0.44,-1.32 -0.4,-0.56 -1.12,-0.96 -0.72,-0.44 -1.68,-0.76 -0.92,-0.32 -1.92,-0.6 -1.2,-0.36 -2.44,-0.76 -1.2,-0.44 -2.2,-1.08 -0.96,-0.64 -1.6,-1.6 -0.6,-0.96 -0.6,-2.4 v -0.08 q 0,-1.32 0.52,-2.4 0.52,-1.12 1.44,-1.88 0.96,-0.8 2.24,-1.2 1.32,-0.44 2.84,-0.44 1.92,0 3.88,0.64 1.96,0.6 3.56,1.64 l -1.4,2.32 q -1.44,-0.92 -3.04,-1.44 -1.56,-0.56 -3.08,-0.56 -1.84,0 -2.92,0.88 -1.08,0.84 -1.08,2.12 v 0.08 q 0,0.72 0.44,1.28 0.44,0.52 1.16,0.92 0.76,0.4 1.72,0.72 0.96,0.32 2,0.64 1.2,0.36 2.36,0.8 1.2,0.44 2.16,1.12 0.96,0.68 1.52,1.64 0.6,0.96 0.6,2.36 v 0.08 q 0,1.48 -0.6,2.64 -0.56,1.12 -1.56,1.92 -0.96,0.8 -2.32,1.24 -1.32,0.4 -2.88,0.4 z"
               id="path4548"
               inkscape:connector-curvature="0" />
            <path
               d="m 335.77859,385.06454 h 3.08 v 20.68 h -3.08 z m -0.2,-7.92 h 3.52 v 3.4 h -3.52 z"
               id="path4550"
               inkscape:connector-curvature="0" />
            <path
               d="m 352.28547,395.22454 -7.8,-10.16 h 3.52 l 6.12,8 6.12,-8 h 3.44 l -7.84,10.08 8.16,10.6 h -3.56 l -6.4,-8.44 -6.44,8.44 h -3.44 z"
               id="path4552"
               inkscape:connector-curvature="0" />
            <path
               d="m 375.93422,406.10454 q -1.24,0 -2.32,-0.32 -1.08,-0.32 -1.88,-1 -0.76,-0.72 -1.2,-1.84 -0.44,-1.12 -0.44,-2.68 v -12.48 h -2.88 v -2.72 h 2.88 v -6.24 h 3.08 v 6.24 h 6.56 v 2.72 h -6.56 v 12.08 q 0,1.92 0.96,2.68 0.96,0.76 2.52,0.76 0.8,0 1.48,-0.16 0.72,-0.16 1.52,-0.56 v 2.64 q -0.8,0.44 -1.72,0.64 -0.88,0.24 -2,0.24 z"
               id="path4554"
               inkscape:connector-curvature="0" />
            <path
               d="m 388.38609,412.26454 q -1.28,0 -2.32,-0.28 -1.04,-0.24 -2.08,-0.76 l 1.04,-2.44 q 0.76,0.4 1.48,0.56 0.76,0.2 1.76,0.2 1.4,0 2.36,-0.84 0.96,-0.84 1.88,-3.04 l -9.4,-20.6 h 3.4 l 7.52,17.24 6.64,-17.24 h 3.28 l -8.68,21.36 q -1.32,3.2 -2.96,4.52 -1.6,1.32 -3.92,1.32 z"
               id="path4556"
               inkscape:connector-curvature="0" />
            <path
               d="m 415.69797,406.14454 q -2.24,0 -4.52,-0.8 -2.28,-0.84 -4.04,-2.24 l 1.56,-2.2 q 1.68,1.28 3.48,1.96 1.84,0.68 3.68,0.68 1.88,0 3.08,-0.88 1.2,-0.88 1.2,-2.4 v -0.08 q 0,-0.76 -0.44,-1.32 -0.4,-0.56 -1.12,-0.96 -0.72,-0.44 -1.68,-0.76 -0.92,-0.32 -1.92,-0.6 -1.2,-0.36 -2.44,-0.76 -1.2,-0.44 -2.2,-1.08 -0.96,-0.64 -1.6,-1.6 -0.6,-0.96 -0.6,-2.4 v -0.08 q 0,-1.32 0.52,-2.4 0.52,-1.12 1.44,-1.88 0.96,-0.8 2.24,-1.2 1.32,-0.44 2.84,-0.44 1.92,0 3.88,0.64 1.96,0.6 3.56,1.64 l -1.4,2.32 q -1.44,-0.92 -3.04,-1.44 -1.56,-0.56 -3.08,-0.56 -1.84,0 -2.92,0.88 -1.08,0.84 -1.08,2.12 v 0.08 q 0,0.72 0.44,1.28 0.44,0.52 1.16,0.92 0.76,0.4 1.72,0.72 0.96,0.32 2,0.64 1.2,0.36 2.36,0.8 1.2,0.44 2.16,1.12 0.96,0.68 1.52,1.64 0.6,0.96 0.6,2.36 v 0.08 q 0,1.48 -0.6,2.64 -0.56,1.12 -1.56,1.92 -0.96,0.8 -2.32,1.24 -1.32,0.4 -2.88,0.4 z"
               id="path4558"
               inkscape:connector-curvature="0" />
            <path
               d="m 443.93984,394.18454 q -0.12,-1.4 -0.6,-2.64 -0.48,-1.28 -1.32,-2.24 -0.8,-0.96 -2,-1.52 -1.16,-0.56 -2.68,-0.56 -1.32,0 -2.48,0.52 -1.16,0.52 -2.04,1.48 -0.88,0.92 -1.48,2.2 -0.56,1.28 -0.72,2.76 z m -13.32,2.48 q 0.16,1.64 0.8,2.92 0.64,1.28 1.64,2.16 1,0.88 2.24,1.36 1.24,0.44 2.6,0.44 2.16,0 3.68,-0.8 1.56,-0.8 2.84,-2.12 l 1.92,1.72 q -1.56,1.76 -3.56,2.84 -2,1.04 -4.96,1.04 -2.12,0 -4,-0.76 -1.88,-0.8 -3.28,-2.2 -1.4,-1.44 -2.24,-3.44 -0.8,-2 -0.8,-4.4 0,-2.24 0.72,-4.2 0.76,-2 2.08,-3.44 1.32,-1.48 3.12,-2.32 1.84,-0.84 4,-0.84 2.28,0 4.08,0.88 1.8,0.84 3.04,2.32 1.24,1.48 1.88,3.48 0.64,2 0.64,4.28 0,0.2 0,0.48 0,0.24 -0.04,0.6 z"
               id="path4560"
               inkscape:connector-curvature="0" />
            <path
               d="m 461.77172,406.22454 q -2.28,0 -4.24,-0.84 -1.92,-0.88 -3.36,-2.32 -1.4,-1.48 -2.2,-3.44 -0.8,-1.96 -0.8,-4.12 v -0.08 q 0,-2.2 0.8,-4.16 0.8,-1.96 2.2,-3.44 1.44,-1.48 3.36,-2.32 1.96,-0.88 4.24,-0.88 1.48,0 2.68,0.28 1.2,0.28 2.2,0.8 1,0.48 1.84,1.16 0.84,0.68 1.56,1.44 l -2.04,2.16 q -1.24,-1.28 -2.72,-2.2 -1.44,-0.92 -3.56,-0.92 -1.56,0 -2.92,0.64 -1.36,0.6 -2.36,1.68 -1,1.08 -1.56,2.56 -0.56,1.44 -0.56,3.12 v 0.08 q 0,1.68 0.56,3.16 0.6,1.44 1.6,2.56 1.04,1.08 2.4,1.72 1.4,0.6 3.04,0.6 2,0 3.52,-0.88 1.56,-0.88 2.8,-2.2 l 1.96,1.84 q -1.56,1.76 -3.56,2.88 -1.96,1.12 -4.88,1.12 z"
               id="path4562"
               inkscape:connector-curvature="0" />
            <path
               d="m 484.78422,403.46454 q 1.68,0 3.08,-0.64 1.4,-0.64 2.4,-1.72 1,-1.08 1.56,-2.52 0.56,-1.44 0.56,-3.08 v -0.08 q 0,-1.68 -0.6,-3.12 -0.56,-1.48 -1.6,-2.56 -1.04,-1.12 -2.44,-1.76 -1.4,-0.64 -3.04,-0.64 -1.68,0 -3.08,0.64 -1.4,0.64 -2.4,1.72 -0.96,1.08 -1.52,2.56 -0.56,1.44 -0.56,3.08 v 0.08 q 0,1.68 0.56,3.16 0.6,1.44 1.6,2.52 1.04,1.08 2.44,1.72 1.4,0.64 3.04,0.64 z m -0.08,2.76 q -2.32,0 -4.28,-0.84 -1.96,-0.88 -3.4,-2.32 -1.44,-1.48 -2.24,-3.4 -0.8,-1.96 -0.8,-4.16 v -0.08 q 0,-2.2 0.8,-4.16 0.8,-1.96 2.24,-3.44 1.44,-1.48 3.4,-2.32 2,-0.88 4.36,-0.88 2.32,0 4.28,0.88 2,0.84 3.44,2.32 1.44,1.44 2.24,3.4 0.8,1.92 0.8,4.12 v 0.08 q 0,2.2 -0.84,4.16 -0.8,1.96 -2.24,3.44 -1.44,1.48 -3.44,2.36 -2,0.84 -4.32,0.84 z"
               id="path4564"
               inkscape:connector-curvature="0" />
            <path
               d="m 501.12359,385.06454 h 3.08 v 3.6 q 1.04,-1.68 2.72,-2.84 1.68,-1.2 4.36,-1.2 1.88,0 3.32,0.6 1.48,0.6 2.48,1.72 1.04,1.08 1.56,2.6 0.56,1.52 0.56,3.36 v 12.84 h -3.08 v -12.08 q 0,-2.88 -1.48,-4.56 -1.48,-1.68 -4.24,-1.68 -1.32,0 -2.48,0.48 -1.12,0.44 -1.96,1.32 -0.84,0.84 -1.32,2.04 -0.44,1.2 -0.44,2.64 v 11.84 h -3.08 z"
               id="path4566"
               inkscape:connector-curvature="0" />
            <path
               d="m 534.97297,403.42454 q 1.44,0 2.76,-0.56 1.36,-0.6 2.4,-1.64 1.08,-1.08 1.68,-2.52 0.64,-1.48 0.64,-3.28 v -0.08 q 0,-1.8 -0.64,-3.24 -0.6,-1.48 -1.68,-2.52 -1.04,-1.04 -2.4,-1.6 -1.32,-0.6 -2.76,-0.6 -1.52,0 -2.84,0.56 -1.32,0.52 -2.32,1.56 -0.96,1 -1.56,2.48 -0.56,1.48 -0.56,3.36 v 0.08 q 0,1.84 0.56,3.32 0.6,1.48 1.6,2.52 1,1.04 2.32,1.6 1.32,0.56 2.8,0.56 z m -0.56,2.76 q -1.88,0 -3.64,-0.72 -1.76,-0.72 -3.16,-2.08 -1.4,-1.4 -2.24,-3.36 -0.84,-2 -0.84,-4.56 v -0.08 q 0,-2.52 0.84,-4.52 0.84,-2 2.24,-3.36 1.4,-1.4 3.16,-2.12 1.76,-0.76 3.64,-0.76 1.44,0 2.64,0.36 1.2,0.36 2.16,0.96 0.96,0.6 1.72,1.4 0.8,0.8 1.4,1.68 v -12.48 h 3.08 v 29.2 h -3.08 v -4.16 q -0.64,0.92 -1.44,1.76 -0.76,0.84 -1.72,1.48 -0.96,0.64 -2.16,1 -1.16,0.36 -2.6,0.36 z"
               id="path4568"
               inkscape:connector-curvature="0" />
          </g>
          <g
             aria-label="revit"
             transform="matrix(0.26458333,0,0,0.26458333,58.458103,84.403947)"
             style="font-style:normal;font-variant:normal;font-weight:normal;font-stretch:normal;font-size:40px;line-height:1.25;font-family:'Gotham Bold';-inkscape-font-specification:'Gotham Bold, Normal';font-variant-ligatures:normal;font-variant-caps:normal;font-variant-numeric:normal;font-feature-settings:normal;text-align:start;letter-spacing:0px;word-spacing:0px;writing-mode:lr-tb;text-anchor:start;fill:#818285;fill-opacity:1;stroke:none"
             id="flowRoot4497-5">
            <path
               d="m 314.85672,404.93555 h 6.08 v -7.92 c 0,-5.12 2.48,-7.56 6.52,-7.56 h 0.32 v -6.36 c -3.6,-0.16 -5.6,1.76 -6.84,4.72 v -4.32 h -6.08 z"
               id="path4571"
               inkscape:connector-curvature="0" />
            <path
               d="m 341.11047,405.41555 c 3.88,0 6.76,-1.52 8.76,-4 l -3.48,-3.08 c -1.68,1.56 -3.16,2.2 -5.2,2.2 -2.72,0 -4.64,-1.44 -5.24,-4.2 h 14.92 c 0.04,-0.56 0.08,-1.12 0.08,-1.6 0,-6.08 -3.28,-11.64 -10.44,-11.64 -6.24,0 -10.6,5.04 -10.6,11.16 v 0.08 c 0,6.56 4.76,11.08 11.2,11.08 z m -5.24,-12.88 c 0.48,-2.76 2.12,-4.56 4.64,-4.56 2.56,0 4.16,1.84 4.52,4.56 z"
               id="path4573"
               inkscape:connector-curvature="0" />
            <path
               d="m 360.98609,405.09555 h 5.52 l 8.44,-21.6 h -6.32 l -4.84,14.36 -4.8,-14.36 h -6.44 z"
               id="path4575"
               inkscape:connector-curvature="0" />
            <path
               d="m 378.57047,381.13555 h 6.4 v -5.4 h -6.4 z m 0.16,23.8 h 6.08 v -21.44 h -6.08 z"
               id="path4577"
               inkscape:connector-curvature="0" />
            <path
               d="m 397.79984,405.29555 c 2.04,0 3.52,-0.48 4.8,-1.24 v -4.88 c -0.88,0.48 -1.88,0.76 -3,0.76 -1.36,0 -1.96,-0.68 -1.96,-2.08 v -9.16 h 5.04 v -5.2 h -5.04 v -5.48 h -6.08 v 5.48 h -2.56 v 5.2 h 2.56 v 10.16 c 0,4.96 2.52,6.44 6.24,6.44 z"
               id="path4579"
               inkscape:connector-curvature="0" />
          </g>
          <g
             aria-label=".com"
             transform="matrix(0.26458333,0,0,0.26458333,83.068388,84.189902)"
             style="font-style:normal;font-variant:normal;font-weight:normal;font-stretch:normal;font-size:40px;line-height:1.25;font-family:'Gotham Book';-inkscape-font-specification:'Gotham Book, Normal';font-variant-ligatures:normal;font-variant-caps:normal;font-variant-numeric:normal;font-feature-settings:normal;text-align:start;letter-spacing:0px;word-spacing:0px;writing-mode:lr-tb;text-anchor:start;fill:#818285;fill-opacity:1;stroke:none"
             id="flowRoot4497-57">
            <path
               d="m 315.21672,401.54454 h 3.68 v 4.2 h -3.68 z"
               id="path4582"
               inkscape:connector-curvature="0" />
            <path
               d="m 334.66234,406.22454 q -2.28,0 -4.24,-0.84 -1.92,-0.88 -3.36,-2.32 -1.4,-1.48 -2.2,-3.44 -0.8,-1.96 -0.8,-4.12 v -0.08 q 0,-2.2 0.8,-4.16 0.8,-1.96 2.2,-3.44 1.44,-1.48 3.36,-2.32 1.96,-0.88 4.24,-0.88 1.48,0 2.68,0.28 1.2,0.28 2.2,0.8 1,0.48 1.84,1.16 0.84,0.68 1.56,1.44 l -2.04,2.16 q -1.24,-1.28 -2.72,-2.2 -1.44,-0.92 -3.56,-0.92 -1.56,0 -2.92,0.64 -1.36,0.6 -2.36,1.68 -1,1.08 -1.56,2.56 -0.56,1.44 -0.56,3.12 v 0.08 q 0,1.68 0.56,3.16 0.6,1.44 1.6,2.56 1.04,1.08 2.4,1.72 1.4,0.6 3.04,0.6 2,0 3.52,-0.88 1.56,-0.88 2.8,-2.2 l 1.96,1.84 q -1.56,1.76 -3.56,2.88 -1.96,1.12 -4.88,1.12 z"
               id="path4584"
               inkscape:connector-curvature="0" />
            <path
               d="m 357.67484,403.46454 q 1.68,0 3.08,-0.64 1.4,-0.64 2.4,-1.72 1,-1.08 1.56,-2.52 0.56,-1.44 0.56,-3.08 v -0.08 q 0,-1.68 -0.6,-3.12 -0.56,-1.48 -1.6,-2.56 -1.04,-1.12 -2.44,-1.76 -1.4,-0.64 -3.04,-0.64 -1.68,0 -3.08,0.64 -1.4,0.64 -2.4,1.72 -0.96,1.08 -1.52,2.56 -0.56,1.44 -0.56,3.08 v 0.08 q 0,1.68 0.56,3.16 0.6,1.44 1.6,2.52 1.04,1.08 2.44,1.72 1.4,0.64 3.04,0.64 z m -0.08,2.76 q -2.32,0 -4.28,-0.84 -1.96,-0.88 -3.4,-2.32 -1.44,-1.48 -2.24,-3.4 -0.8,-1.96 -0.8,-4.16 v -0.08 q 0,-2.2 0.8,-4.16 0.8,-1.96 2.24,-3.44 1.44,-1.48 3.4,-2.32 2,-0.88 4.36,-0.88 2.32,0 4.28,0.88 2,0.84 3.44,2.32 1.44,1.44 2.24,3.4 0.8,1.92 0.8,4.12 v 0.08 q 0,2.2 -0.84,4.16 -0.8,1.96 -2.24,3.44 -1.44,1.48 -3.44,2.36 -2,0.84 -4.32,0.84 z"
               id="path4586"
               inkscape:connector-curvature="0" />
            <path
               d="m 374.01422,385.06454 h 3.08 v 3.48 q 0.52,-0.76 1.12,-1.48 0.64,-0.72 1.44,-1.24 0.8,-0.56 1.8,-0.88 1,-0.32 2.32,-0.32 2.52,0 4.16,1.2 1.64,1.16 2.48,2.92 0.56,-0.84 1.24,-1.6 0.72,-0.76 1.6,-1.32 0.88,-0.56 1.96,-0.88 1.12,-0.32 2.48,-0.32 3.6,0 5.64,2.24 2.04,2.2 2.04,6.08 v 12.8 h -3.08 v -12.08 q 0,-3 -1.44,-4.6 -1.4,-1.64 -3.92,-1.64 -1.16,0 -2.2,0.44 -1.04,0.4 -1.84,1.24 -0.76,0.8 -1.24,2 -0.44,1.2 -0.44,2.72 v 11.92 h -3.04 v -12.16 q 0,-2.92 -1.44,-4.52 -1.4,-1.64 -3.88,-1.64 -1.24,0 -2.28,0.48 -1.04,0.48 -1.84,1.36 -0.76,0.88 -1.2,2.08 -0.44,1.16 -0.44,2.6 v 11.8 h -3.08 z"
               id="path4588"
               inkscape:connector-curvature="0" />
          </g>
        </g>
        <g
           transform="translate(0,7.4942915)"
           id="g4606">
          <g
             aria-label="Rhythm"
             transform="matrix(0.5061419,0,0,0.5061419,-67.228461,-109.38416)"
             style="font-style:normal;font-variant:normal;font-weight:normal;font-stretch:normal;font-size:40px;line-height:1.25;font-family:'Gotham Bold';-inkscape-font-specification:'Gotham Bold, Normal';font-variant-ligatures:normal;font-variant-caps:normal;font-variant-numeric:normal;font-feature-settings:normal;text-align:start;letter-spacing:0px;word-spacing:0px;writing-mode:lr-tb;text-anchor:start;fill:#818285;fill-opacity:1;stroke:none"
             id="flowRoot4530">
            <path
               d="m 251.47173,523.14547 h 5.71366 v -8.31078 h 4.4893 l 5.56526,8.31078 h 6.67831 l -6.34439,-9.27542 c 3.30205,-1.22437 5.56525,-3.85858 5.56525,-8.05108 v -0.0743 c 0,-2.4487 -0.77913,-4.48929 -2.2261,-5.93626 -1.70668,-1.70668 -4.26669,-2.63423 -7.56874,-2.63423 h -11.87255 z m 5.71366,-13.35662 v -7.45743 h 5.67655 c 2.78264,0 4.48931,1.26145 4.48931,3.71016 v 0.0741 c 0,2.189 -1.59537,3.67307 -4.37799,3.67307 z"
               id="path4515"
               inkscape:connector-curvature="0"
               style="stroke-width:0.92754233" />
            <path
               d="m 277.68987,523.14547 h 5.63946 v -11.09341 c 0,-2.67132 1.37276,-4.04408 3.52466,-4.04408 2.15189,0 3.41336,1.37276 3.41336,4.04408 v 11.09341 h 5.63945 v -12.87428 c 0,-4.56352 -2.48581,-7.38326 -6.75251,-7.38326 -2.85683,0 -4.5264,1.52119 -5.82496,3.19076 v -10.01746 h -5.63946 z"
               id="path4517"
               inkscape:connector-curvature="0"
               style="stroke-width:0.92754233" />
            <path
               d="m 304.97528,529.19304 c 3.37625,0 5.00872,-1.52117 6.52989,-5.56525 l 7.64295,-20.36883 h -5.86207 l -4.3409,13.54212 -4.5264,-13.54212 h -5.97337 l 7.79135,19.96071 c -0.48232,1.00174 -1.00174,1.29856 -1.96639,1.29856 -0.74204,0 -1.66958,-0.33392 -2.41161,-0.77914 l -1.89218,4.08119 c 1.44696,0.85334 2.96813,1.37276 5.00873,1.37276 z"
               id="path4519"
               inkscape:connector-curvature="0"
               style="stroke-width:0.92754233" />
            <path
               d="m 329.18819,523.47938 c 1.89218,0 3.26494,-0.44523 4.4522,-1.15015 v -4.5264 c -0.81624,0.44521 -1.74378,0.70492 -2.78262,0.70492 -1.26147,0 -1.81799,-0.63073 -1.81799,-1.92928 v -8.49629 h 4.67482 v -4.82322 h -4.67482 v -5.08294 h -5.63946 v 5.08294 h -2.37451 v 4.82322 h 2.37451 v 9.42383 c 0,4.6006 2.33741,5.97337 5.78787,5.97337 z"
               id="path4521"
               inkscape:connector-curvature="0"
               style="stroke-width:0.92754233" />
            <path
               d="m 337.83519,523.14547 h 5.63947 v -11.09341 c 0,-2.67132 1.37276,-4.04408 3.52466,-4.04408 2.1519,0 3.41335,1.37276 3.41335,4.04408 v 11.09341 h 5.63946 v -12.87428 c 0,-4.56352 -2.4858,-7.38326 -6.75251,-7.38326 -2.85683,0 -4.52641,1.52119 -5.82496,3.19076 v -10.01746 h -5.63947 z"
               id="path4523"
               inkscape:connector-curvature="0"
               style="stroke-width:0.92754233" />
            <path
               d="m 360.9513,523.14547 h 5.63946 v -11.09341 c 0,-2.67132 1.29855,-4.04408 3.41334,-4.04408 2.1148,0 3.30206,1.37276 3.30206,4.04408 v 11.09341 h 5.63946 v -11.09341 c 0,-2.67132 1.29857,-4.04408 3.41336,-4.04408 2.1148,0 3.30205,1.37276 3.30205,4.04408 v 11.09341 h 5.63945 v -12.94849 c 0,-4.78612 -2.52291,-7.30905 -6.71541,-7.30905 -2.70843,0 -4.78611,1.11306 -6.52989,3.15365 -1.03885,-2.00349 -3.00524,-3.15365 -5.60235,-3.15365 -2.85683,0 -4.56352,1.52119 -5.86207,3.19076 v -2.81973 h -5.63946 z"
               id="path4525"
               inkscape:connector-curvature="0"
               style="stroke-width:0.92754233" />
            <path
               style="opacity:1;vector-effect:none;fill:#ffffff;fill-opacity:1;stroke:none;stroke-width:8.63891983;stroke-linecap:butt;stroke-linejoin:miter;stroke-miterlimit:4;stroke-dasharray:none;stroke-dashoffset:0;stroke-opacity:1"
               d="m 37.111105,287.94983 c -2.275412,-0.28125 -2.331314,-0.36791 -1.884441,-2.92141 0.599659,-3.42653 21.757867,-87.50303 24.479518,-97.27441 l 2.088999,-7.5 4.796609,10 c 6.060161,12.63426 24.26572,51.62616 25.637598,54.90953 l 1.032044,2.47003 -4.045533,2.65823 c -2.225043,1.46203 -6.93839,5.58782 -10.474104,9.16842 -8.758769,8.86996 -13.417885,16.81 -16.497648,28.11522 -0.183216,0.67255 -3.024598,0.86465 -11.515649,0.77854 -6.19983,-0.0629 -12.327657,-0.24474 -13.617393,-0.40415 z"
               id="path862"
               inkscape:connector-curvature="0"
               transform="matrix(0.52274537,0,0,0.52274537,120.15206,433.00863)" />
            <path
               style="opacity:1;vector-effect:none;fill:#ffffff;fill-opacity:1;stroke:none;stroke-width:8.63891983;stroke-linecap:butt;stroke-linejoin:miter;stroke-miterlimit:4;stroke-dasharray:none;stroke-dashoffset:0;stroke-opacity:1"
               d="m 192.31748,287.57544 c -4.70259,-13.63001 -9.58948,-21.26927 -19.82157,-30.98539 -9.31543,-8.84567 -20.8738,-14.48602 -35.65648,-17.39994 -3.79316,-0.7477 -5.45768,-2.0718 -4.51727,-3.59343 0.2039,-0.32991 2.21387,-0.81708 4.46661,-1.0826 5.88318,-0.69343 7.31017,-1.79003 7.31017,-5.61765 0,-4.00304 -1.013,-4.78766 -6.77877,-5.25048 l -4.6498,-0.37324 v -7.29743 c 0,-4.01358 -0.20651,-9.27315 -0.4589,-11.68792 l -0.4589,-4.39049 3.85175,-0.003 c 2.57881,-0.001 4.61896,-0.47044 6.17319,-1.41807 1.97361,-1.20333 2.32143,-1.82848 2.32143,-4.17234 0,-3.69432 -1.5265,-4.9035 -6.96429,-5.51665 l -4.46428,-0.50318 v -7.30296 c 0,-4.01662 -0.20651,-9.27868 -0.4589,-11.69345 l -0.4589,-4.39049 h 4.29114 c 5.67544,0 8.05523,-1.70662 8.05523,-5.77663 0,-2.41027 -0.33433,-3.01964 -2.32143,-4.2312 -1.53359,-0.93504 -3.5941,-1.41631 -6.07143,-1.41807 l -3.75,-0.003 v -11.42858 -11.42857 h 3.23723 c 4.40778,0 8.02974,-1.60744 8.58226,-3.80885 1.18482,-4.72068 -1.40437,-7.45893 -7.66371,-8.10495 l -3.97447,-0.4102 0.35869,-11.15943 c 0.19728,-6.13768 0.4569,-11.272343 0.57694,-11.410354 0.12004,-0.138011 2.14026,-0.477552 4.48937,-0.754534 5.29858,-0.624753 6.53655,-1.59095 6.53655,-5.101583 0,-3.93673 -2.43974,-5.678668 -7.95347,-5.678668 h -4.18939 v -5.960723 c 0,-6.807266 -1.07673,-8.593013 -5.11205,-8.478279 -3.8658,0.109913 -5.1982,2.211103 -5.49103,8.659309 l -0.25515,5.618404 -4.20396,0.304086 c -4.55675,0.329606 -7.79495,2.421947 -7.79495,5.036658 0,2.167848 3.84895,5.534831 6.32712,5.534831 1.18322,0 2.9758,0.313472 3.98352,0.696606 l 1.83221,0.696606 v 11.089111 11.08911 l -2.67857,0.0403 c -4.34672,0.0654 -7.56022,1.49535 -8.33684,3.70969 -1.53482,4.3761 2.45213,8.3893 8.33684,8.39175 l 2.67857,0.001 v 11.42857 11.42858 h -2.89261 c -3.33018,0 -6.73546,1.54182 -7.8005,3.53186 -2.34592,4.3834 0.7144,7.89671 6.87856,7.89671 h 3.84994 l -0.19626,11.55138 -0.19627,11.55139 -3.92857,0.80349 c -5.04375,1.03157 -7.02164,2.14779 -7.5523,4.26211 -0.93463,3.72386 3.14041,6.83163 8.95793,6.83163 h 2.88008 v 11.69986 11.69987 l -4.39346,0.31779 c -3.68705,0.2667 -4.66327,0.63146 -6.07143,2.26854 -0.92288,1.07291 -1.67796,2.5471 -1.67796,3.27599 0,2.30554 3.81047,4.79968 8.16378,5.34359 3.56512,0.44543 3.97907,0.67257 3.97907,2.18334 0,1.90835 0.28007,1.79657 -9.88726,3.94612 -4.06299,0.859 -7.63335,1.28607 -7.93413,0.94906 -0.30078,-0.337 -6.029556,-12.34488 -12.73061,-26.68416 C 83.988735,200.557 75.615846,182.64099 72.08337,175.08294 L 65.660688,161.3416 79.701241,105.10364 C 93.240837,50.872222 93.805507,48.848398 95.527509,48.381049 c 2.214573,-0.601031 45.256041,-0.599012 56.386031,0.0026 l 8.17174,0.441746 1.65744,6.428571 c 3.00735,11.664393 52.14791,208.321764 55.06264,220.357144 l 2.85426,11.78572 -2.60177,0.49455 c -4.84124,0.92023 -24.40004,0.67043 -24.74037,-0.31598 z"
               id="path864"
               inkscape:connector-curvature="0"
               transform="matrix(0.52274537,0,0,0.52274537,120.15206,433.00863)" />
            <path
               style="opacity:1;vector-effect:none;fill:#ffffff;fill-opacity:1;stroke:none;stroke-width:8.63891983;stroke-linecap:butt;stroke-linejoin:miter;stroke-miterlimit:4;stroke-dasharray:none;stroke-dashoffset:0;stroke-opacity:1"
               d="m 31.053761,354.3622 -12.688034,-0.21266 0.360993,-1.59062 c 2.076827,-9.15101 4.706486,-20.21304 8.305747,-34.9393 l 4.31004,-17.63438 18.145364,-0.22276 c 21.431536,-0.2631 19.657215,0.51059 23.783471,-10.37068 6.628731,-17.48048 16.932253,-28.64747 32.329278,-35.03858 21.76393,-9.03392 44.84706,-4.15916 61.82747,13.0569 6.13085,6.21594 10.4391,13.33234 13.80768,22.80762 1.64135,4.61688 3.03808,7.37168 4.08554,8.058 1.48643,0.97395 19.35708,2.2049 33.46039,2.30478 l 4.32562,0.0306 5.9112,24.21328 c 3.25117,13.3173 6.08803,25.53159 6.30415,27.14286 l 0.39294,2.92958 -95.98691,-0.161 C 86.935902,354.64732 38.03218,354.47917 31.053761,354.3622 Z"
               id="path866"
               inkscape:connector-curvature="0"
               transform="matrix(0.52274537,0,0,0.52274537,120.15206,433.00863)" />
            <path
               style="opacity:1;vector-effect:none;fill:#ffffff;fill-opacity:1;stroke:none;stroke-width:8.63891983;stroke-linecap:butt;stroke-linejoin:miter;stroke-miterlimit:4;stroke-dasharray:none;stroke-dashoffset:0;stroke-opacity:1"
               d="m 34.043992,120.6661 c -2.661774,-2.66178 -2.743455,-5.59484 -0.238702,-8.57157 2.617669,-3.11092 6.541055,-3.11092 9.158723,0 2.504753,2.97673 2.423073,5.90979 -0.238702,8.57157 -1.424998,1.425 -2.803161,2.08791 -4.340659,2.08791 -1.537498,0 -2.915662,-0.66291 -4.34066,-2.08791 z"
               id="path868"
               inkscape:connector-curvature="0"
               transform="matrix(0.52274537,0,0,0.52274537,120.15206,433.00863)" />
          </g>
          <g
             aria-label="for Dynamo"
             transform="matrix(0.46946807,0,0,0.46946807,-70.043297,-60.030618)"
             style="font-style:normal;font-variant:normal;font-weight:normal;font-stretch:normal;font-size:40px;line-height:1.25;font-family:'Gotham Bold';-inkscape-font-specification:'Gotham Bold, Normal';font-variant-ligatures:normal;font-variant-caps:normal;font-variant-numeric:normal;font-feature-settings:normal;text-align:start;letter-spacing:0px;word-spacing:0px;writing-mode:lr-tb;text-anchor:start;fill:#818285;fill-opacity:1;stroke:none"
             id="flowRoot4530-5">
            <path
               d="m 277.51195,495.84961 h 6.08 v -16.24 h 4.84 v -4.96 h -4.92 v -0.84 c 0,-1.6 0.8,-2.32 2.2,-2.32 1.04,0 1.88,0.2 2.76,0.52 v -5.04 c -1.12,-0.36 -2.4,-0.6 -4.32,-0.6 -2.16,0 -3.8,0.56 -4.92,1.68 -1.12,1.12 -1.72,2.84 -1.72,5.2 v 1.36 h -2.52 v 5 h 2.52 z"
               id="path4529"
               inkscape:connector-curvature="0" />
            <path
               d="m 301.91383,496.32961 c 6.68,0 11.64,-5 11.64,-11.16 v -0.08 c 0,-6.16 -4.92,-11.08 -11.56,-11.08 -6.68,0 -11.64,5 -11.64,11.16 v 0.08 c 0,6.16 4.92,11.08 11.56,11.08 z m 0.08,-5.24 c -3.36,0 -5.64,-2.76 -5.64,-5.92 v -0.08 c 0,-3.16 2.08,-5.84 5.56,-5.84 3.36,0 5.64,2.76 5.64,5.92 v 0.08 c 0,3.16 -2.08,5.84 -5.56,5.84 z"
               id="path4531"
               inkscape:connector-curvature="0" />
            <path
               d="m 317.95633,495.84961 h 6.08 v -7.92 c 0,-5.12 2.48,-7.56 6.52,-7.56 h 0.32 v -6.36 c -3.6,-0.16 -5.6,1.76 -6.84,4.72 v -4.32 h -6.08 z"
               id="path4533"
               inkscape:connector-curvature="0" />
            <path
               d="m 347.34633,495.84961 h 10.92 c 8.8,0 14.88,-6.12 14.88,-14 v -0.08 c 0,-7.88 -6.08,-13.92 -14.88,-13.92 h -10.92 z m 6.16,-5.56 v -16.88 h 4.76 c 5.04,0 8.44,3.48 8.44,8.44 v 0.08 c 0,4.96 -3.4,8.36 -8.44,8.36 z"
               id="path4535"
               inkscape:connector-curvature="0" />
            <path
               d="m 383.07633,502.36961 c 3.64,0 5.4,-1.64 7.04,-6 l 8.24,-21.96 h -6.32 l -4.68,14.6 -4.88,-14.6 h -6.44 l 8.4,21.52 c -0.52,1.08 -1.08,1.4 -2.12,1.4 -0.8,0 -1.8,-0.36 -2.6,-0.84 l -2.04,4.4 c 1.56,0.92 3.2,1.48 5.4,1.48 z"
               id="path4537"
               inkscape:connector-curvature="0" />
            <path
               d="m 401.9407,495.84961 h 6.08 v -11.96 c 0,-2.88 1.48,-4.36 3.8,-4.36 2.32,0 3.68,1.48 3.68,4.36 v 11.96 h 6.08 v -13.88 c 0,-4.92 -2.68,-7.96 -7.28,-7.96 -3.08,0 -4.88,1.64 -6.28,3.44 v -3.04 h -6.08 z"
               id="path4539"
               inkscape:connector-curvature="0" />
            <path
               d="m 432.94258,496.24961 c 2.96,0 5,-1.08 6.48,-2.72 v 2.32 h 5.88 v -12.44 c 0,-2.88 -0.72,-5.24 -2.32,-6.84 -1.52,-1.52 -3.92,-2.4 -7.24,-2.4 -3.64,0 -5.96,0.68 -8.32,1.72 l 1.52,4.64 c 1.96,-0.72 3.6,-1.16 5.92,-1.16 3.04,0 4.6,1.4 4.6,3.92 v 0.36 c -1.52,-0.52 -3.08,-0.88 -5.24,-0.88 -5.08,0 -8.64,2.16 -8.64,6.84 v 0.08 c 0,4.24 3.32,6.56 7.36,6.56 z m 1.84,-4.2 c -1.96,0 -3.32,-0.96 -3.32,-2.6 v -0.08 c 0,-1.92 1.6,-2.96 4.2,-2.96 1.48,0 2.84,0.32 3.88,0.8 v 1.08 c 0,2.2 -1.92,3.76 -4.76,3.76 z"
               id="path4541"
               inkscape:connector-curvature="0" />
            <path
               d="m 450.53445,495.84961 h 6.08 v -11.96 c 0,-2.88 1.4,-4.36 3.68,-4.36 2.28,0 3.56,1.48 3.56,4.36 v 11.96 h 6.08 v -11.96 c 0,-2.88 1.4,-4.36 3.68,-4.36 2.28,0 3.56,1.48 3.56,4.36 v 11.96 h 6.08 v -13.96 c 0,-5.16 -2.72,-7.88 -7.24,-7.88 -2.92,0 -5.16,1.2 -7.04,3.4 -1.12,-2.16 -3.24,-3.4 -6.04,-3.4 -3.08,0 -4.92,1.64 -6.32,3.44 v -3.04 h -6.08 z"
               id="path4543"
               inkscape:connector-curvature="0" />
            <path
               d="m 499.0232,496.32961 c 6.68,0 11.64,-5 11.64,-11.16 v -0.08 c 0,-6.16 -4.92,-11.08 -11.56,-11.08 -6.68,0 -11.64,5 -11.64,11.16 v 0.08 c 0,6.16 4.92,11.08 11.56,11.08 z m 0.08,-5.24 c -3.36,0 -5.64,-2.76 -5.64,-5.92 v -0.08 c 0,-3.16 2.08,-5.84 5.56,-5.84 3.36,0 5.64,2.76 5.64,5.92 v 0.08 c 0,3.16 -2.08,5.84 -5.56,5.84 z"
               id="path4545"
               inkscape:connector-curvature="0" />
          </g>
        </g>
      </g>
    </g>
  </g>
</svg>
